<?xml version="1.0" standalone="no"?>
<!DOCTYPE svg PUBLIC "-//W3C//DTD SVG 20010904//EN"
 "http://www.w3.org/TR/2001/REC-SVG-20010904/DTD/svg10.dtd">
<svg version="1.0" xmlns="http://www.w3.org/2000/svg"
 width="512.000000pt" height="82.000000pt" viewBox="0 0 512.000000 82.000000"
 preserveAspectRatio="xMidYMid meet">

<g transform="translate(0.000000,82.000000) scale(0.100000,-0.100000)"
fill="#000000" stroke="none">
<path d="M400 726 l75 -11 3 -42 3 -43 49 0 c46 0 49 1 79 48 17 27 31 52 31
55 0 4 -71 6 -157 6 -157 -1 -158 -1 -83 -13z"/>
<path d="M635 677 l-30 -52 37 -36 36 -35 66 33 c36 18 66 36 66 38 0 29 -95
105 -131 105 -8 0 -27 -24 -44 -53z"/>
<path d="M2296 698 c-7 -13 -76 -137 -151 -277 -119 -221 -136 -258 -129 -280
7 -20 17 -27 44 -29 33 -3 37 0 65 53 l29 55 127 0 128 0 6 -55 7 -55 54 0
c30 0 54 2 54 5 0 10 -80 552 -86 578 -5 26 -8 27 -70 27 -55 0 -65 -3 -78
-22z m83 -208 c7 -58 15 -122 18 -142 l6 -38 -102 0 c-55 0 -101 2 -101 4 0
17 154 296 160 289 4 -4 13 -55 19 -113z"/>
<path d="M368 673 l-37 -25 26 -38 25 -39 39 26 c34 22 39 30 39 64 0 36 -2
39 -27 38 -16 0 -45 -12 -65 -26z"/>
<path d="M935 628 c-23 -73 -75 -321 -75 -362 0 -100 65 -156 180 -156 110 0
216 69 257 167 12 29 93 341 93 358 0 3 -27 5 -60 5 l-59 0 -10 -37 c-6 -21
-22 -90 -37 -153 -41 -179 -77 -230 -159 -230 -44 0 -67 16 -79 57 -6 17 44
259 70 346 5 15 -2 17 -56 17 -40 0 -62 -4 -65 -12z"/>
<path d="M1402 383 c-35 -142 -62 -261 -62 -265 0 -5 26 -8 59 -8 l59 0 56
233 c31 127 59 247 62 265 l7 32 -60 0 -59 0 -62 -257z"/>
<path d="M1601 388 c-34 -139 -61 -259 -61 -265 0 -9 18 -13 58 -13 l58 0 18
74 c12 52 25 81 45 100 15 14 30 26 34 26 4 0 29 -45 57 -100 l50 -100 70 0
70 0 -14 33 c-8 17 -37 81 -65 141 -29 60 -51 114 -49 121 2 6 58 60 126 119
67 59 122 110 122 112 0 2 -55 3 -122 3 -68 -1 -110 -4 -94 -8 16 -3 31 -10
32 -16 3 -12 -190 -177 -194 -165 -2 4 6 44 18 88 11 44 20 85 20 91 0 7 -23
11 -59 11 l-59 0 -61 -252z"/>
<path d="M3243 631 c-48 -12 -119 -58 -143 -91 -33 -46 -58 -110 -66 -167 -29
-223 216 -360 379 -211 l42 38 -25 20 c-37 30 -60 42 -60 31 0 -19 -68 -51
-110 -51 -36 0 -48 6 -81 39 -37 36 -39 42 -39 99 0 72 12 107 48 145 36 38
74 57 114 57 40 0 94 -31 103 -59 3 -12 10 -21 15 -21 18 0 90 32 90 40 0 20
-68 95 -101 112 -42 22 -120 31 -166 19z"/>
<path d="M4250 625 c-61 -19 -125 -76 -158 -139 -24 -45 -27 -62 -27 -148 0
-91 2 -98 30 -140 77 -108 231 -128 347 -43 70 51 112 143 113 244 0 79 -15
121 -59 169 -53 59 -162 84 -246 57z m131 -100 c98 -51 91 -234 -12 -302 -33
-21 -47 -25 -89 -21 -86 8 -128 71 -117 171 15 123 125 199 218 152z"/>
<path d="M295 610 c-15 -17 -32 -20 -104 -21 l-86 -2 73 -9 c56 -8 72 -13 68
-24 -3 -8 6 -20 24 -29 40 -20 53 -19 79 9 l23 24 -24 36 c-27 42 -29 42 -53
16z"/>
<path d="M2616 613 c-3 -10 -19 -90 -35 -179 -29 -152 -30 -163 -16 -210 17
-59 45 -88 104 -109 120 -42 241 9 285 120 12 30 86 368 86 392 0 2 -22 3 -50
3 -27 0 -50 -1 -50 -3 0 -2 -16 -81 -35 -176 -43 -212 -65 -251 -145 -251 -61
0 -99 34 -100 90 0 29 34 226 55 318 5 20 2 22 -44 22 -39 0 -51 -4 -55 -17z"/>
<path d="M3535 598 c-4 -18 -9 -41 -11 -50 -5 -16 3 -18 66 -18 68 0 70 -1 65
-22 -13 -56 -75 -373 -75 -385 0 -9 15 -13 48 -13 l47 0 40 208 40 207 73 3
c62 2 72 5 72 21 0 10 3 33 6 50 l7 31 -186 0 -185 0 -7 -32z"/>
<path d="M3916 383 c-27 -137 -51 -254 -54 -260 -3 -9 10 -13 47 -13 28 0 51
1 51 3 0 2 23 115 50 252 28 137 50 252 50 257 0 4 -21 8 -48 8 l-48 0 -48
-247z"/>
<path d="M4606 383 c-27 -137 -51 -254 -54 -260 -3 -9 10 -13 46 -13 31 0 52
5 55 13 2 6 17 81 33 165 16 83 31 152 34 152 4 0 39 -74 80 -165 l73 -165 49
0 c26 0 48 1 48 3 0 2 23 115 50 252 28 137 50 252 50 257 0 4 -22 8 -49 8
l-48 0 -22 -112 c-38 -191 -43 -210 -50 -201 -4 4 -39 77 -76 161 l-69 152
-51 0 -51 0 -48 -247z"/>
<path d="M759 564 l-67 -33 -4 -58 c-2 -33 -14 -78 -28 -105 l-23 -47 29 -37
c16 -21 32 -42 36 -48 12 -18 67 44 101 114 26 52 33 80 36 141 5 110 0 114
-80 73z"/>
<path d="M217 496 c-8 -19 -21 -61 -28 -95 -21 -111 20 -205 114 -257 46 -25
62 -29 137 -29 74 0 93 4 148 30 l62 30 -39 45 -39 45 -37 -18 c-99 -47 -196
-24 -234 57 -25 50 -26 79 -6 136 8 23 15 44 15 46 0 2 -17 12 -38 23 l-39 20
-16 -33z"/>
<path d="M492 412 l-22 -17 151 -150 c84 -83 148 -143 143 -135 -16 30 -237
320 -243 320 -3 0 -16 -8 -29 -18z"/>
</g>
</svg>
