<svg width="16" height="14" viewBox="0 0 16 14" fill="none" xmlns="http://www.w3.org/2000/svg">
<path d="M2.93622 11.5903L3.63164 12.2857C3.77329 12.4274 3.84412 12.6077 3.84412 12.8266C3.84412 13.0456 3.77329 13.2258 3.63164 13.3675C3.48998 13.5092 3.30968 13.58 3.09075 13.58C2.87183 13.58 2.69153 13.5092 2.54987 13.3675L0.540882 11.3585C0.386344 11.204 0.309075 11.0237 0.309075 10.8176C0.309075 10.6116 0.386344 10.4313 0.540882 10.2768L2.54987 8.26777C2.69153 8.12611 2.87183 8.05528 3.09075 8.05528C3.30968 8.05528 3.48998 8.12611 3.63164 8.26777C3.77329 8.40943 3.84412 8.58972 3.84412 8.80865C3.84412 9.02758 3.77329 9.20787 3.63164 9.34953L2.93622 10.0449H12.5176L11.8221 9.34953C11.6805 9.20787 11.6096 9.02758 11.6096 8.80865C11.6096 8.58972 11.6805 8.40943 11.8221 8.26777C11.9638 8.12611 12.1441 8.05528 12.363 8.05528C12.5819 8.05528 12.7622 8.12611 12.9039 8.26777L14.9129 10.2768C15.0674 10.4313 15.1447 10.6116 15.1447 10.8176C15.1447 11.0237 15.0674 11.204 14.9129 11.3585L12.9039 13.3675C12.7622 13.5092 12.5819 13.58 12.363 13.58C12.1441 13.58 11.9638 13.5092 11.8221 13.3675C11.6805 13.2258 11.6096 13.0456 11.6096 12.8266C11.6096 12.6077 11.6805 12.4274 11.8221 12.2857L12.5176 11.5903H2.93622ZM0 6.18151V5.73721C0 5.42814 0.0837079 5.14482 0.251124 4.88726C0.41854 4.62969 0.650346 4.43652 0.946543 4.30774C1.28137 4.16608 1.62599 4.05661 1.9804 3.97935C2.33481 3.90208 2.70492 3.86344 3.09075 3.86344C3.4771 3.86344 3.84747 3.90208 4.20188 3.97935C4.55629 4.05661 4.90065 4.16608 5.23496 4.30774C5.53116 4.43652 5.76297 4.62969 5.93038 4.88726C6.0978 5.14482 6.18151 5.42814 6.18151 5.73721V6.18151H0ZM9.27226 6.18151V5.73721C9.27226 5.42814 9.35597 5.14482 9.52338 4.88726C9.6908 4.62969 9.92261 4.43652 10.2188 4.30774C10.5536 4.16608 10.8983 4.05661 11.2527 3.97935C11.6071 3.90208 11.9772 3.86344 12.363 3.86344C12.7494 3.86344 13.1197 3.90208 13.4741 3.97935C13.8285 4.05661 14.1729 4.16608 14.5072 4.30774C14.8034 4.43652 15.0352 4.62969 15.2026 4.88726C15.3701 5.14482 15.4538 5.42814 15.4538 5.73721V6.18151H9.27226ZM3.09075 3.09075C2.66577 3.09075 2.30184 2.93931 1.99894 2.63641C1.69605 2.33352 1.54486 1.96984 1.54538 1.54538C1.54538 1.1204 1.69682 0.756463 1.99972 0.453569C2.30261 0.150675 2.66629 -0.000513814 3.09075 1.31187e-06C3.51573 1.31187e-06 3.87967 0.151448 4.18256 0.454342C4.48546 0.757236 4.63665 1.12091 4.63613 1.54538C4.63613 1.97036 4.48468 2.33429 4.18179 2.63719C3.8789 2.94008 3.51522 3.09127 3.09075 3.09075ZM12.363 3.09075C11.938 3.09075 11.5741 2.93931 11.2712 2.63641C10.9683 2.33352 10.8171 1.96984 10.8176 1.54538C10.8176 1.1204 10.9691 0.756463 11.272 0.453569C11.5749 0.150675 11.9386 -0.000513814 12.363 1.31187e-06C12.788 1.31187e-06 13.1519 0.151448 13.4548 0.454342C13.7577 0.757236 13.9089 1.12091 13.9084 1.54538C13.9084 1.97036 13.7569 2.33429 13.4541 2.63719C13.1512 2.94008 12.7875 3.09127 12.363 3.09075Z" fill="black"/>
</svg>
