<?xml version="1.0" encoding="UTF-8" standalone="no"?>
<!DOCTYPE svg PUBLIC "-//W3C//DTD SVG 1.1//EN" "http://www.w3.org/Graphics/SVG/1.1/DTD/svg11.dtd">
<svg width="100%" height="100%" viewBox="0 0 65 27" version="1.1" xmlns="http://www.w3.org/2000/svg" xmlns:xlink="http://www.w3.org/1999/xlink" xml:space="preserve" xmlns:serif="http://www.serif.com/" style="fill-rule:evenodd;clip-rule:evenodd;">
    <g transform="matrix(1,0,0,1,-1242.59,-1636.64)">
        <g id="Driver-Back" serif:id="Driver Back">
            <g transform="matrix(1,0,0,1,1242,1636)">
                <path d="M10.665,21.029C11.22,21.105 11.763,21.187 12.309,21.254C13.698,21.421 15.088,21.591 16.479,21.743C17.68,21.873 18.883,21.98 20.085,22.097C21.683,22.255 23.282,22.408 24.879,22.575C26.088,22.701 27.293,22.849 28.503,22.976C28.685,22.996 28.704,23.113 28.731,23.239C28.868,23.909 29.158,24.513 29.567,25.055C30.232,25.932 31.125,26.437 32.186,26.716C33.345,27.023 34.498,27.054 35.615,26.641C37.342,26.005 38.259,24.72 38.401,22.872C38.819,22.833 39.243,22.801 39.666,22.757C41.042,22.615 42.417,22.466 43.795,22.326C44.556,22.249 45.318,22.183 46.08,22.115C47.1,22.024 48.121,21.942 49.142,21.847C49.291,21.832 49.356,21.876 49.421,22.007C50.224,23.592 51.485,24.539 53.263,24.778C54.139,24.896 55.006,24.852 55.853,24.618C57.151,24.258 58.446,23.063 58.631,21.294C59.001,21.277 59.374,21.257 59.746,21.243C60.603,21.209 61.461,21.199 62.314,21.138C62.883,21.097 63.465,21.026 63.963,20.717C64.47,20.402 64.829,19.933 64.896,19.337C64.978,18.596 64.988,17.844 64.999,17.097C65.018,16.007 64.731,14.978 64.28,13.995C63.922,13.214 63.742,12.42 63.841,11.551C63.903,11.008 63.896,10.449 63.689,9.921C63.394,9.162 62.873,8.63 62.101,8.372C59.727,7.58 57.46,6.555 55.259,5.36C53.058,4.165 50.812,3.056 48.383,2.371C47,1.98 45.599,1.684 44.164,1.56C42.795,1.442 41.425,1.312 40.054,1.21C39.384,1.16 38.709,1.158 38.035,1.148C35.663,1.112 33.29,1.084 30.917,1.054C29.262,1.033 27.618,1.163 25.972,1.322C23.732,1.537 21.556,2.028 19.43,2.757C18.292,3.147 17.24,3.714 16.282,4.43C15.216,5.226 14.164,6.047 13.161,6.919C12.269,7.695 11.267,8.199 10.127,8.455C9.061,8.694 7.982,8.877 6.926,9.155C5.931,9.416 4.92,9.654 3.993,10.123C3.42,10.413 2.86,10.727 2.297,11.036C1.855,11.279 1.54,11.626 1.452,12.139C1.326,12.869 1.164,13.595 1.095,14.331C1.017,15.168 0.989,16.011 1.004,16.85C1.014,17.427 1.106,18.007 1.214,18.576C1.351,19.306 1.849,19.71 2.558,19.84C2.817,19.887 2.922,19.95 3,20.245C3.288,21.339 3.903,22.222 4.801,22.94C6.176,24.038 8.585,23.881 9.869,22.67C10.337,22.229 10.574,21.684 10.66,21.031L10.665,21.029ZM64.751,18.306C64.122,18.329 63.467,18.363 62.81,18.373C61.502,18.396 60.192,18.387 58.885,18.426C57.699,18.461 56.515,18.535 55.333,18.603C53.883,18.688 52.432,18.769 50.985,18.883C49.957,18.964 48.933,19.082 47.91,19.209C46.995,19.323 46.175,19.645 45.486,20.298C44.863,20.891 44.103,21.17 43.227,21.145C42.593,21.126 41.957,21.145 41.323,21.179C40.05,21.244 38.778,21.331 37.494,21.408C37.485,21.37 37.465,21.298 37.451,21.224C37.437,21.149 37.433,21.072 37.414,20.999C36.921,19.093 36.075,17.362 34.847,15.823C34.376,15.233 33.846,14.707 33.151,14.372C32.072,13.852 31.035,13.866 30.032,14.568C29.33,15.06 28.926,15.772 28.62,16.533C28.062,17.922 28.056,19.398 28.029,20.865L28.029,21.065C27.784,21.043 27.564,21.017 27.344,21.004C26.009,20.925 24.673,20.851 23.339,20.768C22.698,20.728 22.059,20.674 21.421,20.615C20.577,20.535 19.735,20.44 18.893,20.358C18.011,20.273 17.129,20.195 16.249,20.113C15.489,20.042 14.729,19.955 13.969,19.9C13.093,19.836 12.214,19.804 11.337,19.75C11.025,19.73 10.713,19.693 10.402,19.655C10.327,19.645 10.215,19.616 10.191,19.564C10.004,19.157 9.834,18.742 9.651,18.311C10.373,18.35 11.05,18.392 11.728,18.423C12.323,18.45 12.922,18.45 13.517,18.487C14.44,18.545 15.362,18.631 16.283,18.696C17.321,18.769 18.359,18.835 19.396,18.893C21.038,18.985 22.68,19.066 24.322,19.161C25.177,19.211 26.029,19.28 26.882,19.341C27.072,19.354 27.261,19.367 27.451,19.381C27.458,19.347 27.465,19.313 27.472,19.279C27.339,19.231 27.207,19.183 27.076,19.136C27.176,18.919 27.288,18.702 27.378,18.477C27.831,17.35 28.243,16.203 28.89,15.166C29.359,14.413 29.841,13.668 30.327,12.925C30.836,12.148 31.225,11.321 31.392,10.405C31.488,9.872 31.646,9.332 31.403,8.776C31.51,8.785 31.609,8.801 31.706,8.801C32.377,8.795 33.056,8.842 33.718,8.761C34.463,8.67 35.111,8.303 35.614,7.732C35.997,7.296 35.991,6.878 35.62,6.433C35.526,6.321 35.425,6.216 35.32,6.115C34.331,5.173 33.18,4.479 31.909,4.007C29.649,3.168 27.312,2.703 24.9,2.563C23.54,2.483 22.216,2.648 20.901,2.924C19.245,3.271 17.753,4.013 16.394,4.995C15.011,5.993 13.674,7.055 12.322,8.096C11.997,8.345 11.641,8.574 11.487,8.989C11.474,9.025 11.423,9.049 11.385,9.073C10.336,9.711 9.647,10.635 9.316,11.805C8.812,13.59 8.844,15.4 9.15,17.216C9.291,18.05 9.528,18.849 9.956,19.588L9.224,19.588C9.209,19.499 9.187,19.425 9.184,19.351C9.142,18.197 8.915,17.076 8.572,15.98C8.223,14.864 7.699,13.842 6.805,13.05C5.674,12.047 4.288,12.138 3.338,13.306C2.606,14.206 2.257,15.246 2.361,16.418C2.386,16.713 2.392,17.009 2.409,17.331C2.033,17.311 1.663,17.29 1.278,17.269C1.198,15.83 1.31,14.413 1.556,13.076C1.896,12.974 2.222,12.947 2.467,12.79C3.006,12.444 3.506,12.04 4.013,11.646C4.153,11.537 4.092,11.385 3.905,11.361C3.685,11.333 3.464,11.321 3.243,11.314C3.003,11.307 2.762,11.313 2.523,11.313C3.037,10.99 3.539,10.655 4.086,10.439C5.016,10.075 5.965,9.74 6.927,9.478C7.967,9.195 9.031,9.01 10.085,8.778C11.182,8.535 12.193,8.116 13.07,7.388C14.137,6.504 15.206,5.622 16.302,4.777C17.275,4.027 18.349,3.439 19.516,3.035C21.34,2.401 23.203,1.934 25.124,1.695C26.787,1.488 28.456,1.315 30.13,1.308C32.679,1.298 35.228,1.352 37.777,1.383C38.496,1.391 39.218,1.396 39.935,1.444C41.193,1.529 42.452,1.618 43.705,1.756C44.751,1.871 45.79,2.048 46.831,2.217C47.205,2.278 47.57,2.395 47.971,2.496C47.448,2.496 46.966,2.485 46.485,2.499C45.253,2.533 44.022,2.58 42.79,2.618C41.153,2.669 39.515,2.7 37.879,2.772C37.049,2.809 36.219,2.903 35.393,2.998C34.987,3.045 34.585,3.138 34.154,3.4C34.244,3.451 34.3,3.478 34.349,3.512C34.711,3.756 35.057,4.026 35.432,4.241C37.023,5.154 38.689,5.935 40.209,6.973C41.415,7.798 42.69,8.508 43.986,9.185C44.565,9.487 45.107,9.864 45.666,10.21C45.729,10.25 45.783,10.309 45.871,10.384C45.288,10.449 44.757,10.509 44.227,10.568C42.549,10.757 41.142,11.418 40.197,12.881C40.107,13.02 40.032,13.169 39.941,13.33C42.676,13.553 45.349,13.904 48.039,13.407C48.086,13.483 48.135,13.56 48.181,13.639C48.481,14.162 48.769,14.694 49.082,15.209C49.441,15.797 49.961,16.136 50.667,16.14C51.463,16.144 52.258,16.149 53.053,16.14C54.032,16.13 55.011,16.12 55.99,16.085C57.312,16.037 58.635,15.983 59.955,15.892C60.555,15.851 61.157,15.759 61.741,15.618C62.423,15.455 62.894,15.032 63.004,14.296C63.09,13.731 63.17,13.166 63.254,12.587C63.34,12.577 63.444,12.566 63.508,12.559C63.645,12.981 63.752,13.387 63.908,13.774C64.305,14.761 64.733,15.736 64.755,16.825C64.765,17.306 64.757,17.786 64.757,18.314L64.751,18.306ZM37.549,21.752C37.616,21.73 37.671,21.701 37.729,21.695C38.438,21.632 39.145,21.553 39.854,21.52C40.984,21.467 42.117,21.43 43.248,21.416C44.113,21.404 44.894,21.194 45.552,20.609C45.656,20.517 45.763,20.432 45.865,20.34C46.267,19.978 46.734,19.747 47.258,19.624C48.498,19.33 49.763,19.221 51.027,19.129C52.118,19.048 53.211,18.991 54.301,18.927C55.781,18.84 57.261,18.73 58.744,18.674C60.022,18.624 61.3,18.644 62.578,18.617C63.189,18.604 63.798,18.556 64.409,18.52C64.526,18.513 64.642,18.491 64.791,18.471C64.765,18.715 64.758,18.92 64.72,19.12C64.598,19.76 64.306,20.304 63.689,20.575C63.346,20.725 62.962,20.823 62.589,20.856C61.753,20.932 60.912,20.965 60.071,20.994C58.397,21.051 56.721,21.081 55.047,21.146C54.146,21.18 53.248,21.265 52.347,21.325C51.569,21.376 50.789,21.414 50.012,21.475C48.778,21.572 47.544,21.679 46.311,21.784C45.541,21.849 44.771,21.905 44.003,21.983C42.262,22.158 40.522,22.346 38.781,22.526C38.431,22.561 38.079,22.578 37.729,22.613C37.675,22.619 37.626,22.674 37.573,22.706C37.623,22.74 37.67,22.794 37.725,22.805C37.881,22.836 38.04,22.849 38.217,22.872C38.2,22.984 38.184,23.087 38.166,23.191C37.877,24.875 36.673,26.164 35.051,26.553C33.863,26.838 32.713,26.68 31.587,26.268C30.646,25.925 29.915,25.314 29.437,24.432C29.203,24 29.04,23.529 28.833,23.049L29.316,23.049C29.254,22.961 29.18,22.907 29.101,22.891C28.466,22.764 27.832,22.615 27.19,22.526C26.221,22.39 25.247,22.29 24.275,22.184C22.884,22.032 21.493,21.878 20.101,21.742C18.686,21.604 17.267,21.508 15.854,21.355C14.25,21.182 12.651,20.966 11.052,20.768C10.426,20.69 9.801,20.606 9.159,20.524C9.18,20.228 9.197,19.979 9.216,19.726C9.279,19.726 9.316,19.723 9.353,19.726C10.425,19.829 11.495,19.943 12.567,20.035C13.48,20.114 14.397,20.159 15.31,20.239C16.361,20.33 17.409,20.44 18.458,20.542C19.31,20.624 20.161,20.712 21.013,20.785C22.291,20.894 23.57,21.002 24.85,21.091C25.742,21.153 26.637,21.187 27.53,21.226C27.765,21.235 28.002,21.217 28.213,21.213C28.185,21.034 28.141,20.912 28.149,20.796C28.205,20.08 28.267,19.364 28.334,18.65C28.442,17.479 28.797,16.398 29.488,15.434C30.082,14.605 31.27,13.999 32.461,14.369C33.218,14.605 33.835,15.033 34.346,15.62C35.844,17.331 36.761,19.334 37.298,21.525C37.365,21.8 37.406,22.08 37.46,22.358C37.633,22.174 37.55,21.973 37.55,21.756L37.549,21.752ZM20.019,18.689C19.85,18.678 19.7,18.667 19.549,18.658C18.878,18.623 18.204,18.6 17.534,18.55C16.269,18.457 15.006,18.322 13.74,18.254C12.464,18.186 11.185,18.17 9.907,18.152C9.669,18.149 9.586,18.081 9.535,17.854C9.153,16.163 9.094,14.464 9.362,12.752C9.537,11.628 9.987,10.646 10.816,9.855C11.264,9.427 11.728,9.033 12.418,9.134C12.522,9.149 12.631,9.111 12.737,9.105C14.188,9.026 15.639,8.944 17.09,8.87C18.327,8.806 19.565,8.751 20.803,8.694C20.912,8.689 21.021,8.694 21.084,8.694C20.831,9.137 20.532,9.551 20.343,10.01C19.908,11.075 19.74,12.21 19.71,13.35C19.662,15.129 19.591,16.914 20.017,18.689L20.019,18.689ZM20.195,18.702C20.121,18.102 20.006,17.538 19.988,16.97C19.937,15.365 19.887,13.758 20.107,12.158C20.278,10.912 20.604,9.733 21.475,8.772C21.513,8.73 21.588,8.698 21.648,8.697C22.932,8.659 24.217,8.589 25.501,8.599C27.238,8.613 28.973,8.69 30.709,8.735C31.251,8.749 31.26,8.745 31.226,9.285C31.145,10.598 30.731,11.802 29.978,12.879C28.691,14.721 27.683,16.7 27.015,18.847C26.952,19.051 26.885,19.173 26.641,19.081C26.523,19.037 26.386,19.037 26.257,19.03C24.93,18.95 23.601,18.871 22.274,18.797C21.58,18.759 20.885,18.733 20.196,18.702L20.195,18.702ZM34.526,3.422C34.648,3.365 34.705,3.322 34.767,3.312C35.476,3.2 36.182,3.052 36.895,2.995C37.947,2.911 39.004,2.887 40.058,2.85C40.937,2.821 41.818,2.805 42.698,2.791C44.419,2.762 46.142,2.724 47.863,2.723C48.347,2.723 48.853,2.767 49.308,2.916C50.184,3.202 51.054,3.528 51.884,3.928C53.632,4.77 55.35,5.672 57.083,6.545C57.433,6.721 57.791,6.88 58.122,7.034C56.447,7.092 54.759,7.156 53.07,7.206C52.091,7.234 51.11,7.215 50.131,7.264C49.271,7.305 48.413,7.428 47.553,7.476C46.56,7.532 45.565,7.534 44.571,7.578C43.763,7.614 42.955,7.665 42.148,7.736C41.953,7.753 41.799,7.74 41.635,7.632C40.698,7.013 39.778,6.361 38.807,5.798C37.559,5.072 36.269,4.42 34.999,3.732C34.854,3.654 34.722,3.551 34.526,3.42L34.526,3.422ZM21.585,8.419C21.815,7.855 22.018,7.354 22.223,6.855C22.789,5.483 23.454,4.162 24.224,2.894C24.262,2.83 24.358,2.762 24.427,2.764C25.023,2.779 25.623,2.774 26.214,2.845C26.902,2.928 27.582,3.083 28.264,3.212C29.951,3.528 31.595,3.976 33.11,4.815C33.958,5.285 34.766,5.808 35.41,6.542C35.815,7.004 35.875,7.105 35.403,7.654C34.681,8.491 33.708,8.684 32.659,8.626C32.309,8.606 31.959,8.568 31.609,8.552C30.432,8.501 29.255,8.457 28.08,8.409C27.446,8.384 26.813,8.341 26.179,8.331C25.498,8.321 24.818,8.334 24.137,8.348C23.312,8.365 22.487,8.395 21.587,8.421L21.585,8.419ZM42.093,7.923C42.1,7.896 42.107,7.868 42.113,7.841C43.119,7.801 44.125,7.739 45.131,7.727C46.379,7.715 47.621,7.662 48.864,7.55C49.997,7.448 51.139,7.442 52.278,7.4C52.645,7.386 53.012,7.391 53.381,7.384C55.101,7.349 56.822,7.309 58.541,7.276C58.636,7.275 58.737,7.308 58.826,7.346C59.501,7.631 60.172,7.924 60.848,8.207C61.038,8.286 61.235,8.347 61.435,8.399C62.175,8.591 62.823,8.92 63.233,9.602C63.281,9.682 63.318,9.77 63.366,9.868C63.202,9.868 63.073,9.867 62.943,9.868C62.439,9.877 61.933,9.868 61.429,9.898C60.484,9.955 59.541,10.065 58.595,10.096C56.637,10.162 54.678,10.194 52.719,10.232C50.699,10.272 48.678,10.296 46.658,10.347C46.342,10.356 46.104,10.299 45.858,10.088C45.101,9.441 44.19,9.046 43.318,8.588C42.907,8.372 42.503,8.146 42.096,7.923L42.093,7.923ZM63.067,12.634C62.989,13.067 62.88,13.55 62.82,14.041C62.718,14.877 62.209,15.298 61.431,15.426C60.791,15.531 60.145,15.614 59.498,15.655C57.98,15.75 56.46,15.834 54.939,15.885C53.608,15.929 52.276,15.92 50.944,15.939C50.181,15.949 49.579,15.672 49.186,14.99C48.867,14.435 48.536,13.886 48.237,13.376C49.036,12.973 49.863,12.594 50.652,12.146C51.385,11.73 52.16,11.521 52.99,11.497C54.465,11.455 55.941,11.422 57.419,11.403C58.176,11.394 58.934,11.44 59.691,11.429C60.491,11.418 61.204,11.64 61.877,12.064C62.233,12.288 62.64,12.433 63.067,12.634ZM11.759,8.901C11.918,8.758 12.061,8.612 12.22,8.487C13.429,7.537 14.631,6.58 15.855,5.649C17.059,4.733 18.357,3.979 19.785,3.461C20.782,3.1 21.821,2.937 22.866,2.804C23.263,2.752 23.661,2.716 24.024,2.676C23.549,3.612 23.05,4.529 22.615,5.476C22.178,6.427 21.808,7.41 21.414,8.364C18.235,8.541 15.021,8.72 11.758,8.901L11.759,8.901ZM10.485,21.003C10.364,21.564 10.157,22.068 9.735,22.449C8.691,23.392 7.458,23.631 6.124,23.307C5.171,23.074 4.456,22.453 3.909,21.659C3.495,21.058 3.263,20.383 3.109,19.662C2.861,18.496 2.589,17.342 2.586,16.139C2.585,15.27 2.826,14.494 3.304,13.788C3.477,13.532 3.694,13.292 3.932,13.093C4.734,12.426 5.803,12.508 6.665,13.272C7.249,13.79 7.669,14.426 7.978,15.132C8.67,16.706 8.955,18.369 8.992,20.079C9.002,20.559 8.996,20.562 9.455,20.718C9.657,20.786 9.861,20.844 10.065,20.902C10.195,20.939 10.33,20.966 10.483,21.003L10.485,21.003ZM63.523,12.356C63.458,12.361 63.413,12.366 63.369,12.366C62.864,12.37 62.435,12.159 62.029,11.89C61.353,11.442 60.611,11.212 59.805,11.214C57.516,11.221 55.228,11.229 52.94,11.262C52.091,11.273 51.291,11.493 50.536,11.919C49.812,12.328 49.045,12.658 48.301,13.03C48.088,13.136 47.982,13.075 47.884,12.868C47.507,12.083 47.115,11.303 46.511,10.658C46.505,10.651 46.513,10.631 46.518,10.593C47.263,10.57 48.012,10.543 48.761,10.526C50.833,10.478 52.906,10.432 54.98,10.39C56.014,10.368 57.047,10.367 58.079,10.339C58.721,10.322 59.362,10.276 60.003,10.235C61.055,10.166 62.106,10.084 63.158,10.017C63.46,9.999 63.513,10.04 63.519,10.343C63.535,11.007 63.523,11.67 63.523,12.356ZM49.516,21.82C52.53,21.569 55.488,21.337 58.512,21.278C58.363,21.672 58.259,22.024 58.102,22.35C57.579,23.436 56.741,24.16 55.559,24.447C54.796,24.631 54.026,24.652 53.242,24.545C51.525,24.308 50.399,23.288 49.516,21.82ZM40.28,13.143C40.393,13.008 40.488,12.911 40.567,12.8C41.34,11.704 42.442,11.133 43.72,10.896C44.453,10.76 45.206,10.729 45.948,10.637C46.095,10.618 46.189,10.652 46.291,10.753C46.987,11.442 47.377,12.326 47.879,13.184C45.332,13.639 42.823,13.32 40.281,13.145L40.28,13.143ZM2.914,19.642C1.679,19.466 1.343,18.834 1.302,17.483C1.678,17.507 2.053,17.532 2.422,17.556C2.582,18.238 2.747,18.933 2.912,19.643L2.914,19.642ZM3.742,11.524C3.084,12.02 2.548,12.699 1.611,12.719C1.704,12.37 1.761,12.043 1.886,11.744C1.94,11.615 2.131,11.463 2.262,11.46C2.754,11.45 3.248,11.499 3.742,11.524Z" style="fill:rgb(38,97,197);fill-rule:nonzero;stroke:rgb(38,97,197);stroke-width:0.2px;"/>
            </g>
            <g transform="matrix(1,0,0,1,1242,1636)">
                <path d="M37.549,21.751C37.549,21.968 37.631,22.17 37.458,22.354C37.406,22.076 37.365,21.795 37.297,21.52C36.759,19.328 35.842,17.325 34.345,15.615C33.832,15.03 33.217,14.602 32.459,14.365C31.269,13.995 30.082,14.6 29.486,15.43C28.796,16.394 28.44,17.474 28.332,18.645C28.266,19.361 28.203,20.076 28.148,20.792C28.14,20.908 28.182,21.028 28.212,21.208C28.002,21.213 27.765,21.231 27.529,21.221C26.635,21.183 25.741,21.149 24.849,21.086C23.569,20.997 22.29,20.889 21.011,20.78C20.159,20.708 19.309,20.62 18.456,20.538C17.407,20.437 16.36,20.325 15.309,20.234C14.396,20.155 13.479,20.11 12.566,20.03C11.494,19.938 10.424,19.825 9.352,19.721C9.315,19.718 9.278,19.721 9.214,19.721C9.196,19.975 9.179,20.223 9.158,20.519C9.8,20.603 10.425,20.687 11.05,20.763C12.651,20.962 14.25,21.177 15.852,21.35C17.266,21.503 18.685,21.598 20.1,21.737C21.492,21.873 22.883,22.028 24.273,22.18C25.246,22.286 26.22,22.385 27.188,22.521C27.829,22.612 28.463,22.759 29.099,22.887C29.18,22.903 29.253,22.956 29.315,23.044L28.831,23.044C29.038,23.525 29.202,23.996 29.435,24.428C29.913,25.308 30.646,25.92 31.586,26.264C32.712,26.675 33.862,26.834 35.05,26.549C36.672,26.159 37.875,24.87 38.164,23.186C38.183,23.083 38.197,22.978 38.215,22.867C38.038,22.844 37.879,22.832 37.724,22.801C37.668,22.789 37.623,22.735 37.572,22.701C37.624,22.669 37.674,22.615 37.728,22.609C38.078,22.574 38.43,22.557 38.78,22.521C40.521,22.341 42.26,22.154 44.001,21.978C44.77,21.9 45.539,21.845 46.309,21.78C47.543,21.676 48.776,21.567 50.011,21.471C50.788,21.41 51.568,21.371 52.346,21.32C53.246,21.261 54.145,21.177 55.045,21.142C56.72,21.078 58.395,21.047 60.07,20.99C60.911,20.962 61.751,20.928 62.588,20.851C62.961,20.817 63.345,20.719 63.688,20.57C64.305,20.3 64.597,19.757 64.719,19.116C64.757,18.916 64.764,18.709 64.789,18.467C64.641,18.486 64.524,18.51 64.408,18.516C63.798,18.552 63.187,18.6 62.576,18.613C61.299,18.639 60.019,18.621 58.743,18.669C57.261,18.726 55.781,18.835 54.3,18.923C53.208,18.988 52.116,19.045 51.026,19.124C49.76,19.218 48.495,19.327 47.256,19.619C46.733,19.742 46.265,19.975 45.864,20.335C45.762,20.427 45.654,20.514 45.551,20.604C44.893,21.19 44.112,21.4 43.247,21.411C42.116,21.427 40.983,21.464 39.853,21.516C39.143,21.55 38.435,21.629 37.728,21.69C37.67,21.696 37.614,21.726 37.548,21.747L37.549,21.751ZM35.023,20.724C35.037,21.502 34.891,22.428 34.63,23.159C34.356,23.928 33.964,24.622 33.314,25.143C32.45,25.837 31.385,25.809 30.585,25.041C30.319,24.784 30.083,24.478 29.9,24.156C29.4,23.275 29.194,22.321 29.174,21.302C29.158,20.42 29.224,19.56 29.486,18.72C29.753,17.865 30.158,17.091 30.887,16.533C31.705,15.908 32.638,15.922 33.443,16.561C33.835,16.872 34.122,17.266 34.348,17.705C34.834,18.652 35.01,19.67 35.02,20.724L35.023,20.724Z" style="fill:none;fill-rule:nonzero;stroke:rgb(38,97,197);stroke-width:0.2px;"/>
            </g>
            <g transform="matrix(1,0,0,1,1242,1636)">
                <path d="M20.019,18.69C19.594,16.915 19.664,15.13 19.711,13.351C19.742,12.211 19.91,11.077 20.345,10.011C20.532,9.552 20.831,9.138 21.085,8.695C21.023,8.695 20.913,8.691 20.804,8.695C19.567,8.753 18.329,8.809 17.091,8.871C15.641,8.946 14.189,9.027 12.739,9.106C12.632,9.112 12.522,9.149 12.42,9.135C11.729,9.034 11.266,9.428 10.818,9.856C9.988,10.648 9.539,11.63 9.363,12.753C9.095,14.465 9.155,16.164 9.536,17.855C9.587,18.082 9.671,18.15 9.909,18.153C11.186,18.171 12.465,18.187 13.741,18.255C15.007,18.323 16.269,18.458 17.535,18.551C18.206,18.601 18.879,18.624 19.551,18.659C19.701,18.668 19.852,18.679 20.02,18.69L20.019,18.69Z" style="fill:none;fill-rule:nonzero;stroke:rgb(38,97,197);stroke-width:0.2px;"/>
            </g>
            <g transform="matrix(1,0,0,1,1242,1636)">
                <path d="M20.195,18.702C20.884,18.734 21.578,18.759 22.273,18.797C23.601,18.871 24.928,18.951 26.255,19.03C26.384,19.037 26.522,19.037 26.64,19.081C26.885,19.173 26.952,19.05 27.014,18.847C27.683,16.699 28.691,14.721 29.977,12.88C30.73,11.802 31.144,10.599 31.225,9.286C31.259,8.746 31.25,8.75 30.707,8.736C28.972,8.69 27.235,8.614 25.5,8.6C24.215,8.59 22.931,8.659 21.646,8.697C21.587,8.699 21.513,8.73 21.473,8.773C20.603,9.732 20.277,10.912 20.105,12.158C19.886,13.759 19.934,15.365 19.986,16.97C20.005,17.538 20.118,18.104 20.193,18.702L20.195,18.702Z" style="fill:none;fill-rule:nonzero;stroke:rgb(38,97,197);stroke-width:0.2px;"/>
            </g>
            <g transform="matrix(1,0,0,1,1242,1636)">
                <path d="M34.528,3.423C34.722,3.552 34.854,3.656 35,3.735C36.27,4.423 37.56,5.075 38.808,5.801C39.779,6.365 40.699,7.016 41.636,7.635C41.801,7.744 41.954,7.756 42.15,7.739C42.956,7.668 43.764,7.617 44.572,7.581C45.566,7.537 46.561,7.535 47.554,7.479C48.414,7.431 49.272,7.308 50.133,7.267C51.111,7.22 52.092,7.238 53.072,7.208C54.76,7.159 56.449,7.095 58.123,7.037C57.793,6.882 57.434,6.724 57.084,6.548C55.351,5.675 53.633,4.773 51.885,3.931C51.056,3.531 50.184,3.205 49.309,2.918C48.854,2.77 48.348,2.724 47.864,2.726C46.143,2.726 44.421,2.765 42.7,2.794C41.819,2.808 40.939,2.823 40.06,2.853C39.005,2.89 37.949,2.914 36.897,2.998C36.184,3.055 35.478,3.203 34.769,3.315C34.706,3.325 34.65,3.368 34.528,3.425L34.528,3.423Z" style="fill:none;fill-rule:nonzero;stroke:rgb(38,97,197);stroke-width:0.2px;"/>
            </g>
            <g transform="matrix(1,0,0,1,1242,1636)">
                <path d="M21.585,8.42C22.486,8.395 23.311,8.365 24.136,8.348C24.816,8.334 25.497,8.321 26.177,8.331C26.811,8.341 27.445,8.384 28.078,8.409C29.255,8.457 30.432,8.501 31.607,8.552C31.957,8.568 32.308,8.606 32.658,8.626C33.707,8.684 34.68,8.491 35.401,7.653C35.873,7.106 35.814,7.006 35.408,6.542C34.765,5.808 33.956,5.284 33.109,4.815C31.593,3.976 29.95,3.528 28.263,3.212C27.58,3.084 26.9,2.93 26.213,2.845C25.623,2.772 25.022,2.778 24.425,2.764C24.357,2.762 24.261,2.83 24.222,2.894C23.453,4.162 22.786,5.484 22.222,6.855C22.016,7.354 21.814,7.855 21.584,8.419L21.585,8.42Z" style="fill:none;fill-rule:nonzero;stroke:rgb(38,97,197);stroke-width:0.2px;"/>
            </g>
            <g transform="matrix(1,0,0,1,1242,1636)">
                <path d="M42.093,7.925C42.5,8.146 42.905,8.373 43.315,8.59C44.187,9.048 45.098,9.445 45.855,10.09C46.102,10.3 46.34,10.356 46.655,10.349C48.675,10.298 50.696,10.274 52.716,10.234C54.675,10.196 56.634,10.164 58.592,10.098C59.538,10.067 60.481,9.956 61.426,9.9C61.93,9.87 62.436,9.877 62.941,9.87C63.07,9.869 63.2,9.87 63.363,9.87C63.315,9.774 63.278,9.684 63.23,9.603C62.819,8.922 62.172,8.593 61.432,8.401C61.234,8.35 61.035,8.288 60.845,8.208C60.169,7.926 59.498,7.633 58.823,7.348C58.734,7.31 58.633,7.277 58.538,7.278C56.819,7.311 55.098,7.349 53.378,7.386C53.011,7.393 52.642,7.389 52.275,7.402C51.136,7.444 49.994,7.45 48.861,7.552C47.618,7.663 46.376,7.715 45.128,7.729C44.122,7.741 43.116,7.803 42.11,7.843C42.103,7.87 42.096,7.898 42.09,7.925L42.093,7.925Z" style="fill:none;fill-rule:nonzero;stroke:rgb(38,97,197);stroke-width:0.2px;"/>
            </g>
            <g transform="matrix(1,0,0,1,1242,1636)">
                <path d="M63.065,12.635C62.639,12.434 62.232,12.291 61.876,12.065C61.201,11.64 60.489,11.418 59.69,11.43C58.933,11.442 58.174,11.395 57.417,11.405C55.941,11.423 54.464,11.456 52.988,11.498C52.159,11.522 51.385,11.731 50.65,12.148C49.862,12.596 49.034,12.974 48.236,13.377C48.536,13.887 48.865,14.436 49.184,14.992C49.576,15.674 50.178,15.95 50.942,15.94C52.274,15.923 53.606,15.932 54.938,15.886C56.459,15.835 57.979,15.752 59.497,15.657C60.144,15.615 60.79,15.532 61.429,15.427C62.209,15.299 62.717,14.878 62.819,14.042C62.878,13.551 62.987,13.066 63.065,12.635ZM56.073,12.264L56.073,12.271C56.67,12.271 57.267,12.265 57.864,12.278C57.945,12.28 58.075,12.357 58.093,12.424C58.171,12.701 58.213,12.988 58.272,13.27C58.356,13.666 58.462,14.057 58.522,14.456C58.563,14.731 58.455,14.851 58.197,14.929C58.118,14.953 58.034,14.97 57.95,14.982C56.959,15.112 55.968,15.095 54.973,15.037C54.477,15.009 54.243,14.962 54.12,14.259C54.032,13.757 54.01,13.242 53.968,12.732C53.937,12.35 54.013,12.268 54.397,12.265C54.956,12.261 55.515,12.265 56.075,12.265L56.073,12.264ZM62.296,14.055C61.999,14.321 60.197,14.365 59.915,14.09C60.743,14.037 61.517,13.989 62.296,14.055ZM50.92,14.4L50.92,14.378C50.76,14.378 50.599,14.388 50.441,14.373C50.378,14.368 50.32,14.307 50.259,14.271C50.314,14.232 50.37,14.162 50.426,14.159C50.928,14.135 51.432,14.121 51.933,14.114C51.993,14.114 52.053,14.179 52.112,14.215C52.057,14.254 52.003,14.325 51.945,14.331C51.605,14.362 51.261,14.379 50.92,14.4Z" style="fill:none;fill-rule:nonzero;stroke:rgb(38,97,197);stroke-width:0.2px;"/>
            </g>
            <g transform="matrix(1,0,0,1,1242,1636)">
                <path d="M11.759,8.903C15.023,8.722 18.238,8.543 21.415,8.366C21.808,7.412 22.18,6.43 22.616,5.478C23.05,4.531 23.551,3.613 24.025,2.678C23.661,2.717 23.263,2.756 22.867,2.805C21.822,2.939 20.783,3.102 19.786,3.463C18.359,3.981 17.06,4.735 15.856,5.651C14.633,6.582 13.431,7.539 12.221,8.489C12.063,8.614 11.919,8.76 11.761,8.903L11.759,8.903Z" style="fill:none;fill-rule:nonzero;stroke:rgb(38,97,197);stroke-width:0.2px;"/>
            </g>
            <g transform="matrix(1,0,0,1,1242,1636)">
                <path d="M10.485,21.006C10.332,20.969 10.198,20.942 10.066,20.906C9.862,20.847 9.658,20.789 9.457,20.721C8.996,20.565 9.003,20.562 8.993,20.082C8.956,18.372 8.671,16.709 7.979,15.135C7.669,14.429 7.249,13.793 6.667,13.275C5.805,12.511 4.734,12.429 3.933,13.097C3.695,13.295 3.48,13.535 3.305,13.791C2.827,14.497 2.586,15.273 2.588,16.142C2.591,17.347 2.863,18.5 3.111,19.665C3.264,20.385 3.497,21.062 3.911,21.663C4.458,22.458 5.172,23.079 6.125,23.31C7.458,23.635 8.691,23.395 9.736,22.452C10.159,22.071 10.364,21.568 10.486,21.006L10.485,21.006ZM3.119,18.182C3.178,17.697 3.209,17.207 3.301,16.727C3.461,15.89 3.765,15.106 4.381,14.486C5.137,13.727 6.081,13.764 6.79,14.565C7.136,14.957 7.364,15.416 7.514,15.911C7.978,17.439 7.94,18.96 7.417,20.466C7.211,21.057 6.908,21.599 6.417,22.009C5.738,22.576 4.921,22.557 4.317,21.912C4.035,21.61 3.8,21.244 3.626,20.87C3.233,20.024 3.11,19.118 3.119,18.184L3.119,18.182Z" style="fill:none;fill-rule:nonzero;stroke:rgb(38,97,197);stroke-width:0.2px;"/>
            </g>
            <g transform="matrix(1,0,0,1,1242,1636)">
                <path d="M63.523,12.36C63.523,11.673 63.533,11.01 63.519,10.346C63.512,10.043 63.458,10.002 63.158,10.02C62.106,10.087 61.055,10.169 60.003,10.239C59.362,10.281 58.722,10.325 58.079,10.342C57.047,10.371 56.014,10.372 54.98,10.393C52.907,10.436 50.835,10.481 48.761,10.529C48.012,10.546 47.263,10.573 46.518,10.596C46.513,10.634 46.505,10.654 46.511,10.661C47.116,11.306 47.507,12.086 47.884,12.871C47.984,13.078 48.09,13.139 48.301,13.033C49.045,12.662 49.812,12.331 50.536,11.923C51.29,11.498 52.089,11.278 52.94,11.265C55.228,11.234 57.516,11.224 59.805,11.217C60.61,11.214 61.353,11.445 62.029,11.893C62.435,12.161 62.864,12.374 63.369,12.37C63.414,12.37 63.46,12.364 63.523,12.36Z" style="fill:none;fill-rule:nonzero;stroke:rgb(38,97,197);stroke-width:0.2px;"/>
            </g>
            <g transform="matrix(1,0,0,1,1242,1636)">
                <path d="M49.516,21.822C50.4,23.289 51.525,24.31 53.242,24.547C54.026,24.655 54.796,24.633 55.559,24.449C56.741,24.163 57.579,23.44 58.102,22.352C58.259,22.026 58.363,21.673 58.512,21.28C55.488,21.341 52.53,21.572 49.516,21.822Z" style="fill:none;fill-rule:nonzero;stroke:rgb(38,97,197);stroke-width:0.2px;"/>
            </g>
            <g transform="matrix(1,0,0,1,1242,1636)">
                <path d="M40.279,13.145C42.821,13.322 45.331,13.641 47.877,13.184C47.377,12.328 46.985,11.443 46.289,10.753C46.187,10.652 46.093,10.618 45.946,10.637C45.205,10.729 44.452,10.761 43.719,10.896C42.44,11.133 41.338,11.704 40.566,12.8C40.488,12.911 40.391,13.009 40.278,13.143L40.279,13.145Z" style="fill:none;fill-rule:nonzero;stroke:rgb(38,97,197);stroke-width:0.2px;"/>
            </g>
            <g transform="matrix(1,0,0,1,1242,1636)">
                <path d="M2.915,19.645C2.748,18.936 2.585,18.24 2.425,17.558C2.056,17.534 1.68,17.51 1.305,17.484C1.346,18.836 1.68,19.468 2.915,19.644L2.915,19.645Z" style="fill:none;fill-rule:nonzero;stroke:rgb(38,97,197);stroke-width:0.2px;"/>
            </g>
            <g transform="matrix(1,0,0,1,1242,1636)">
                <path d="M3.742,11.525C3.248,11.5 2.755,11.451 2.262,11.461C2.13,11.464 1.94,11.616 1.886,11.745C1.761,12.044 1.705,12.371 1.611,12.72C2.548,12.7 3.083,12.021 3.742,11.525Z" style="fill:none;fill-rule:nonzero;stroke:rgb(38,97,197);stroke-width:0.2px;"/>
            </g>
            <g transform="matrix(1,0,0,1,1242,1636)">
                <path d="M33.269,9.984C35.961,10.397 38.69,10.448 41.41,10.636L41.425,10.549C41.271,10.51 41.118,10.452 40.962,10.437C40.271,10.366 39.581,10.298 38.889,10.245C37.671,10.153 36.453,10.057 35.234,9.991C34.58,9.957 33.925,9.986 33.27,9.986L33.269,9.984Z" style="fill:rgb(38,97,197);fill-rule:nonzero;stroke:rgb(38,97,197);stroke-width:0.2px;"/>
            </g>
            <g transform="matrix(1,0,0,1,1242,1636)">
                <path d="M37.622,18.636C37.868,18.689 38.114,18.771 38.363,18.788C39.769,18.886 41.172,18.841 42.571,18.669C42.965,18.621 43.361,18.6 43.756,18.561C43.865,18.551 43.973,18.522 44.082,18.502C44.082,18.476 44.085,18.451 44.085,18.427C43.983,18.411 43.879,18.377 43.777,18.381C43.213,18.405 42.65,18.444 42.086,18.469C41.01,18.517 39.935,18.57 38.858,18.6C38.495,18.61 38.129,18.554 37.765,18.53C37.724,18.527 37.681,18.536 37.639,18.54C37.633,18.573 37.627,18.604 37.622,18.636Z" style="fill:rgb(38,97,197);fill-rule:nonzero;stroke:rgb(38,97,197);stroke-width:0.2px;"/>
            </g>
            <g transform="matrix(1,0,0,1,1242,1636)">
                <path d="M35.024,20.724C35.014,19.67 34.839,18.653 34.352,17.706C34.125,17.265 33.839,16.872 33.448,16.562C32.641,15.922 31.709,15.908 30.892,16.533C30.161,17.092 29.757,17.866 29.491,18.721C29.229,19.56 29.162,20.421 29.179,21.303C29.199,22.321 29.404,23.276 29.905,24.157C30.088,24.478 30.323,24.786 30.59,25.041C31.389,25.81 32.454,25.838 33.319,25.143C33.967,24.623 34.359,23.928 34.634,23.16C34.895,22.428 35.041,21.503 35.027,20.724L35.024,20.724ZM29.43,21.11C29.455,20.143 29.594,19.341 29.892,18.569C30.161,17.873 30.526,17.241 31.14,16.79C31.816,16.295 32.566,16.298 33.21,16.834C33.469,17.051 33.721,17.316 33.876,17.612C35.036,19.841 34.943,22.054 33.693,24.215C33.519,24.515 33.235,24.773 32.953,24.986C32.328,25.458 31.62,25.452 31.001,24.975C30.738,24.773 30.497,24.52 30.315,24.244C29.652,23.256 29.488,22.125 29.43,21.11Z" style="fill:rgb(38,97,197);fill-rule:nonzero;stroke:rgb(38,97,197);stroke-width:0.2px;"/>
            </g>
            <g transform="matrix(1,0,0,1,1242,1636)">
                <path d="M56.075,12.264C55.516,12.264 54.958,12.261 54.398,12.264C54.013,12.267 53.937,12.349 53.968,12.73C54.011,13.241 54.032,13.754 54.12,14.257C54.243,14.961 54.477,15.006 54.973,15.036C55.968,15.094 56.961,15.111 57.95,14.98C58.034,14.969 58.116,14.952 58.197,14.928C58.455,14.85 58.563,14.73 58.522,14.455C58.462,14.056 58.356,13.665 58.272,13.269C58.213,12.987 58.172,12.699 58.094,12.423C58.075,12.356 57.945,12.278 57.864,12.277C57.267,12.264 56.67,12.27 56.073,12.27L56.073,12.263L56.075,12.264ZM57.916,12.501C58.044,13.122 58.18,13.73 58.289,14.342C58.342,14.635 58.289,14.704 57.994,14.74C57.548,14.793 57.098,14.837 56.649,14.843C56.038,14.852 55.427,14.818 54.814,14.81C54.578,14.807 54.467,14.662 54.412,14.469C54.226,13.832 54.225,13.177 54.191,12.5L57.918,12.5L57.916,12.501Z" style="fill:rgb(38,97,197);fill-rule:nonzero;stroke:rgb(38,97,197);stroke-width:0.2px;"/>
            </g>
            <g transform="matrix(1,0,0,1,1242,1636)">
                <path d="M62.296,14.055C61.517,13.991 60.743,14.039 59.915,14.09C60.197,14.364 61.999,14.322 62.296,14.055Z" style="fill:rgb(38,97,197);fill-rule:nonzero;stroke:rgb(38,97,197);stroke-width:0.2px;"/>
            </g>
            <g transform="matrix(1,0,0,1,1242,1636)">
                <path d="M50.92,14.4C51.261,14.378 51.603,14.361 51.945,14.33C52.004,14.325 52.057,14.255 52.112,14.214C52.052,14.179 51.993,14.113 51.933,14.113C51.432,14.12 50.928,14.134 50.426,14.159C50.368,14.162 50.314,14.232 50.259,14.271C50.319,14.306 50.377,14.367 50.441,14.373C50.599,14.387 50.76,14.377 50.92,14.377L50.92,14.4Z" style="fill:rgb(38,97,197);fill-rule:nonzero;stroke:rgb(38,97,197);stroke-width:0.2px;"/>
            </g>
            <g transform="matrix(1,0,0,1,1242,1636)">
                <path d="M3.119,18.182C3.108,19.116 3.233,20.023 3.626,20.869C3.8,21.244 4.035,21.61 4.317,21.911C4.921,22.556 5.738,22.574 6.417,22.007C6.909,21.597 7.211,21.056 7.417,20.464C7.94,18.959 7.978,17.436 7.514,15.909C7.364,15.414 7.136,14.955 6.79,14.564C6.081,13.763 5.135,13.726 4.381,14.484C3.764,15.104 3.461,15.888 3.301,16.726C3.209,17.205 3.178,17.696 3.119,18.18L3.119,18.182ZM7.443,18.325C7.446,19.006 7.286,19.917 6.878,20.776C6.689,21.173 6.451,21.538 6.092,21.807C5.605,22.174 5.082,22.174 4.632,21.76C4.412,21.558 4.217,21.307 4.075,21.041C3.607,20.16 3.454,19.198 3.474,18.21C3.491,17.314 3.665,16.441 4.078,15.643C4.264,15.284 4.516,14.938 4.809,14.659C5.281,14.211 5.866,14.232 6.328,14.69C6.562,14.923 6.766,15.206 6.915,15.501C7.319,16.302 7.445,17.17 7.443,18.325Z" style="fill:rgb(38,97,197);fill-rule:nonzero;"/>
            </g>
            <g transform="matrix(1,0,0,1,1242,1636)">
                <path d="M57.916,12.501L54.189,12.501C54.224,13.179 54.224,13.834 54.41,14.47C54.467,14.663 54.576,14.809 54.813,14.812C55.424,14.819 56.036,14.854 56.647,14.845C57.097,14.837 57.546,14.795 57.993,14.741C58.286,14.706 58.34,14.635 58.288,14.344C58.178,13.732 58.042,13.123 57.915,12.502L57.916,12.501Z" style="fill:none;fill-rule:nonzero;stroke:rgb(38,97,197);stroke-width:0.2px;"/>
            </g>
            <g transform="matrix(1,0,0,1,1242,1636)">
                <path d="M7.443,18.323C7.445,17.168 7.319,16.3 6.915,15.499C6.766,15.204 6.563,14.921 6.328,14.688C5.865,14.23 5.281,14.208 4.809,14.657C4.517,14.935 4.263,15.281 4.078,15.641C3.664,16.439 3.491,17.312 3.474,18.208C3.455,19.197 3.607,20.158 4.075,21.04C4.215,21.305 4.411,21.556 4.632,21.758C5.081,22.172 5.605,22.172 6.092,21.805C6.45,21.536 6.689,21.173 6.878,20.775C7.286,19.915 7.445,19.004 7.443,18.323Z" style="fill:none;fill-rule:nonzero;stroke:white;stroke-width:0.2px;"/>
            </g>
        </g>
    </g>
</svg>
