<?xml version="1.0" encoding="UTF-8" standalone="no"?>
<!DOCTYPE svg PUBLIC "-//W3C//DTD SVG 1.1//EN" "http://www.w3.org/Graphics/SVG/1.1/DTD/svg11.dtd">
<svg width="100%" height="100%" viewBox="0 0 65 28" version="1.1" xmlns="http://www.w3.org/2000/svg" xmlns:xlink="http://www.w3.org/1999/xlink" xml:space="preserve" xmlns:serif="http://www.serif.com/" style="fill-rule:evenodd;clip-rule:evenodd;">
    <g transform="matrix(1,0,0,1,-1242.59,-1636.11)">
        <g id="Passenger-Front" serif:id="Passenger Front">
            <g transform="matrix(1,0,0,1,1242,1635.5)">
                <path d="M4.232,22.053C4.405,22.844 4.557,23.657 5.181,24.263C5.684,24.751 6.159,24.748 6.64,24.235C7.176,23.664 7.446,22.958 7.6,22.209C7.952,20.509 7.862,18.828 7.312,17.18C7.205,16.861 7.042,16.55 6.854,16.271C6.5,15.749 5.963,15.58 5.35,15.75C4.862,15.885 4.462,16.15 4.173,16.57C4.146,16.609 4.115,16.645 4.067,16.674C4.2,15.748 4.267,14.804 4.863,14.017C5.288,13.458 5.711,13.383 6.294,13.775C6.709,14.054 7.006,14.442 7.253,14.868C7.918,16.012 8.307,17.256 8.589,18.54C8.738,19.221 8.882,19.905 9.03,20.587C9.107,20.946 9.112,20.923 9.462,20.948C9.955,20.984 10.444,21.065 10.936,21.118C12.223,21.26 13.506,21.422 14.794,21.533C16.253,21.658 17.715,21.737 19.177,21.834C20.453,21.916 21.729,21.978 23.001,22.081C24.257,22.184 25.509,22.326 26.762,22.453C26.87,22.465 26.978,22.49 27.109,22.513C26.872,22.209 27.023,21.901 27.046,21.613C27.116,20.73 27.227,19.851 27.317,18.97C27.417,17.979 27.605,17.009 27.939,16.068C28.13,15.527 28.449,15.055 28.871,14.683C29.457,14.169 30.173,14.134 30.898,14.331C31.81,14.578 32.406,15.212 32.824,16.019C33.376,17.089 33.681,18.242 33.918,19.417C34.124,20.45 34.359,21.479 34.601,22.506C34.712,22.981 35.02,23.21 35.503,23.241C38.991,23.464 42.482,23.558 45.977,23.513C47.411,23.495 48.843,23.476 50.276,23.425C52.205,23.359 54.131,23.256 56.06,23.183C57.987,23.11 59.916,23.051 61.845,22.993C62.397,22.976 62.951,22.991 63.525,22.991C63.097,23.09 62.685,23.225 62.264,23.279C61.054,23.43 59.844,23.585 58.629,23.672C56.99,23.789 55.345,23.827 53.706,23.932C52.506,24.01 51.311,24.149 50.112,24.246C49.438,24.301 48.763,24.35 48.089,24.358C45.971,24.388 43.853,24.389 41.736,24.416C40.638,24.43 39.538,24.496 38.44,24.5C37.972,24.502 37.504,24.41 37.037,24.347C36.944,24.334 36.861,24.259 36.773,24.214C36.748,24.201 36.718,24.185 36.691,24.184C36.58,24.18 36.464,24.202 36.358,24.177C35.869,24.058 35.384,23.92 34.895,23.805C34.81,23.785 34.709,23.838 34.616,23.858C34.685,23.924 34.744,24.024 34.827,24.049C35.347,24.211 35.872,24.357 36.395,24.509C36.448,24.524 36.5,24.544 36.579,24.571C36.53,24.742 36.5,24.909 36.436,25.063C36.274,25.444 36.104,25.822 35.924,26.194C35.561,26.947 34.955,27.388 34.14,27.527C32.977,27.725 31.803,27.762 30.641,27.568C29.231,27.332 28.443,26.401 28.052,25.082C27.947,24.724 27.851,24.364 27.747,24.006C27.718,23.903 27.669,23.805 27.629,23.703C27.605,23.709 27.58,23.715 27.556,23.72C27.573,23.848 27.579,23.979 27.611,24.103C27.769,24.689 27.885,25.292 28.106,25.853C28.568,27.031 29.493,27.679 30.721,27.865C31.878,28.039 33.043,28.009 34.2,27.827C35.075,27.689 35.737,27.238 36.158,26.447C36.462,25.878 36.715,25.292 36.809,24.649C37.248,24.699 37.68,24.787 38.113,24.789C38.918,24.79 39.722,24.721 40.528,24.714C42.271,24.701 44.014,24.723 45.758,24.704C46.93,24.692 48.103,24.658 49.274,24.589C50.076,24.543 50.875,24.43 51.675,24.332C52.15,24.274 52.209,24.294 52.404,24.725C53.175,26.424 54.772,27.334 56.63,27.169C57.267,27.112 57.889,27.02 58.493,26.809C59.577,26.432 60.329,25.66 60.958,24.746C61.178,24.426 61.36,24.079 61.571,23.751C61.607,23.695 61.693,23.648 61.762,23.639C62.609,23.515 63.435,23.307 64.228,22.978C64.234,22.975 64.242,22.971 64.25,22.968C64.669,22.826 64.662,22.826 64.594,22.369C64.512,21.805 64.618,21.263 64.85,20.752C65.03,20.355 65.057,20.017 64.881,19.581C64.632,18.963 64.525,18.285 64.376,17.629C64.188,16.798 64.055,15.953 63.834,15.132C63.558,14.11 62.979,13.269 62.169,12.575C60.575,11.205 58.739,10.369 56.688,9.946C55.049,9.608 53.421,9.21 51.789,8.838C49.989,8.427 48.485,7.488 47.265,6.14C45.391,4.071 43.042,2.873 40.383,2.19C38.835,1.792 37.262,1.546 35.672,1.394C32.426,1.085 29.172,0.993 25.913,1.024C24.073,1.041 22.237,1.163 20.416,1.443C19.13,1.64 17.836,1.806 16.567,2.079C15.195,2.372 13.915,2.964 12.626,3.51C10.974,4.207 9.338,4.935 7.828,5.91C7.142,6.352 6.425,6.725 5.709,7.113C4.475,7.781 3.327,8.582 2.293,9.538C1.659,10.124 1.375,10.874 1.254,11.713C1.053,13.102 0.998,14.498 1.001,15.898C1.004,16.848 0.977,17.806 1.076,18.748C1.211,20.055 1.588,20.624 3.151,21.118C3.353,21.181 3.419,21.253 3.415,21.458C3.398,22.498 3.737,23.435 4.27,24.315C4.925,25.399 5.939,25.857 7.149,25.923C7.73,25.954 8.33,25.965 8.898,25.861C9.843,25.688 10.541,25.132 10.92,24.229C11.104,23.79 11.251,23.335 11.421,22.874C11.802,22.931 12.224,23.02 12.652,23.054C13.65,23.133 14.649,23.19 15.649,23.248C17.055,23.329 18.465,23.364 19.866,23.488C21.673,23.647 23.474,23.88 25.279,24.066C25.949,24.135 26.626,24.16 27.299,24.2C27.343,24.202 27.39,24.157 27.435,24.135C27.403,24.094 27.376,24.025 27.336,24.015C27.06,23.948 26.784,23.875 26.505,23.835C25.539,23.702 24.572,23.571 23.603,23.459C22.294,23.308 20.985,23.138 19.672,23.045C18.137,22.937 16.598,22.906 15.061,22.837C14.135,22.797 13.207,22.763 12.282,22.7C11.577,22.65 10.876,22.555 10.172,22.487C10.054,22.476 9.93,22.51 9.809,22.524C9.81,22.558 9.812,22.59 9.813,22.624C10.217,22.684 10.62,22.746 11.099,22.819C10.8,23.435 10.562,24.052 10.215,24.6C9.823,25.219 9.152,25.453 8.454,25.517C7.756,25.58 7.056,25.538 6.365,25.386C5.375,25.168 4.746,24.521 4.294,23.67C4.021,23.156 3.862,22.603 3.796,22.022C3.758,21.696 3.703,21.369 3.633,21.049C3.619,20.987 3.507,20.935 3.431,20.901C3.119,20.764 2.798,20.647 2.49,20.501C1.817,20.18 1.491,19.608 1.357,18.9C1.167,17.9 1.207,16.893 1.257,15.885C1.33,14.408 1.443,12.935 1.623,11.464C1.717,10.691 2.06,10.129 2.621,9.642C3.778,8.641 5.014,7.764 6.418,7.14C6.573,7.071 6.712,6.97 6.875,6.873C6.9,6.951 6.933,7.023 6.947,7.099C7.128,8.024 7.756,8.472 8.627,8.634C8.985,8.7 9.355,8.721 9.72,8.732C11.585,8.79 13.45,8.822 15.313,8.894C16.435,8.938 17.555,9.033 18.676,9.111C19.17,9.144 19.665,9.189 20.16,9.233C20.247,9.24 20.341,9.253 20.419,9.291C20.921,9.535 21.456,9.605 22.006,9.62C23.194,9.649 24.382,9.684 25.571,9.721C25.772,9.726 25.972,9.756 26.179,9.774C26.2,9.555 26.065,9.521 25.937,9.514C25.523,9.49 25.109,9.478 24.694,9.463C23.693,9.43 22.692,9.404 21.691,9.364C21.026,9.336 20.443,9.088 19.942,8.648C19.893,8.605 19.845,8.561 19.802,8.512C19.435,8.094 19.491,7.699 20.003,7.48C20.371,7.322 20.774,7.211 21.172,7.159C21.877,7.068 22.587,7.051 23.257,7.365C23.686,7.566 23.949,7.892 24.047,8.353C24.113,8.666 24.196,8.749 24.52,8.775C24.974,8.81 25.429,8.827 25.885,8.849C26.065,8.858 26.157,8.77 26.105,8.595C26.013,8.284 25.938,7.961 25.789,7.678C25.329,6.801 24.894,5.903 24.348,5.08C23.374,3.612 21.898,2.886 20.215,2.534C19.263,2.334 18.299,2.259 17.318,2.281C17.704,2.205 18.089,2.107 18.48,2.058C20.135,1.854 21.789,1.619 23.45,1.481C25.349,1.325 27.258,1.345 29.165,1.411C30.49,1.457 31.817,1.495 33.143,1.57C35.363,1.695 37.576,1.889 39.748,2.405C39.849,2.429 39.949,2.462 40.004,2.478C37.465,2.417 34.881,2.34 32.297,2.304C31.379,2.291 30.459,2.381 29.541,2.42C28.956,2.446 28.369,2.447 27.784,2.488C26.779,2.558 25.775,2.649 24.77,2.734C24.697,2.739 24.625,2.758 24.555,2.779C24.321,2.846 24.247,3.016 24.38,3.215C24.744,3.754 25.119,4.286 25.487,4.823C26.311,6.025 26.91,7.338 27.385,8.711C27.403,8.763 27.43,8.832 27.409,8.872C27.271,9.143 27.465,9.192 27.649,9.215C27.939,9.251 28.232,9.279 28.525,9.275C30.511,9.244 32.498,9.196 34.486,9.167C36.839,9.132 39.194,9.115 41.548,9.081C43.739,9.05 45.931,9.016 48.121,8.969C48.95,8.95 49.778,8.886 50.606,8.845C50.653,8.842 50.702,8.856 50.748,8.872C52.499,9.456 54.305,9.802 56.112,10.151C58.031,10.522 59.833,11.152 61.399,12.358C61.624,12.532 61.843,12.715 62.063,12.897C62.131,12.953 62.192,13.019 62.273,13.096C62.23,13.112 62.203,13.129 62.176,13.129C60.598,13.179 59.019,13.235 57.44,13.279C55.462,13.332 53.483,13.361 51.505,13.431C50.017,13.483 48.531,13.592 47.042,13.657C46.773,13.668 46.5,13.584 46.226,13.559C44.987,13.442 43.75,13.293 42.509,13.227C40.867,13.14 39.222,13.116 37.577,13.072C36.673,13.048 35.769,13.04 34.867,13.027C34.691,13.025 34.517,13.044 34.304,13.054C34.318,13.11 34.313,13.183 34.346,13.217C34.809,13.682 35.155,14.252 35.724,14.626C36.369,15.05 37.061,15.282 37.824,15.334C38.831,15.403 39.836,15.496 40.843,15.556C41.533,15.597 42.226,15.606 42.918,15.623C43.576,15.639 44.234,15.672 44.89,15.648C45.074,15.641 45.282,15.493 45.426,15.354C45.829,14.964 46.213,14.553 46.59,14.135C46.797,13.906 47.002,13.75 47.339,13.802C47.657,13.852 47.984,13.847 48.357,13.868C48.228,13.979 48.112,14.054 48.031,14.155C47.616,14.665 47.2,15.174 46.806,15.7C46.587,15.994 46.581,16.335 46.795,16.635C47.106,17.071 47.442,17.489 47.781,17.904C47.845,17.983 47.976,18.046 48.077,18.048C48.703,18.052 49.328,18.038 49.953,18.028C50.017,18.027 50.083,18.019 50.148,18.019C52.486,18.024 54.824,18.036 57.162,18.032C58.58,18.029 59.993,17.952 61.379,17.619C61.513,17.586 61.583,17.532 61.646,17.388C61.881,16.857 61.977,16.307 61.937,15.794C62.504,15.675 63.038,15.561 63.584,15.445C63.899,16.729 64.229,18.073 64.551,19.387C64.187,19.321 63.788,19.207 63.383,19.184C62.287,19.117 61.188,19.057 60.092,19.054C58.691,19.05 57.29,19.084 55.89,19.139C53.978,19.213 52.068,19.33 50.158,19.415C48.742,19.479 47.327,19.514 45.911,19.581C44.627,19.643 43.338,19.669 42.086,20.012C40.933,20.326 39.919,20.893 39.038,21.697C38.901,21.821 38.779,21.971 38.686,22.13C38.631,22.223 38.65,22.358 38.657,22.47C39.524,21.444 40.661,20.896 41.878,20.485C42.677,20.215 43.513,20.121 44.352,20.073C45.798,19.99 47.245,19.909 48.693,19.837C49.733,19.787 50.775,19.754 51.817,19.715C54.453,19.615 57.089,19.503 59.725,19.424C60.838,19.39 61.956,19.414 63.071,19.446C63.489,19.459 63.906,19.562 64.32,19.643C64.441,19.667 64.561,19.746 64.658,19.827C64.707,19.868 64.743,19.989 64.718,20.042C64.336,20.885 64.161,21.756 64.329,22.678C64.332,22.692 64.323,22.708 64.316,22.747C64.111,22.732 63.904,22.702 63.696,22.702C62.172,22.7 60.648,22.673 59.126,22.711C57.442,22.753 55.76,22.86 54.076,22.93C53.019,22.975 51.96,23.024 50.903,23.04C47.89,23.082 44.876,23.128 41.862,23.134C39.786,23.137 37.709,23.075 35.633,23.04C35.07,23.03 34.886,22.894 34.778,22.351C34.531,21.11 34.317,19.863 34.06,18.623C33.867,17.691 33.61,16.771 33.168,15.921C32.669,14.958 31.956,14.232 30.853,13.98C30.229,13.839 29.619,13.891 29.039,14.152C28.838,14.242 28.656,14.397 28.5,14.557C27.757,15.313 27.427,16.273 27.224,17.28C26.936,18.718 26.813,20.176 26.758,21.64C26.751,21.842 26.756,22.043 26.756,22.257C26.375,22.199 26,22.141 25.597,22.08C25.879,20.982 25.966,19.86 26.031,18.738C26.096,17.617 26.127,16.496 26.143,15.372C26.159,14.253 26.268,13.13 26.128,12.014C26.1,12.011 26.072,12.009 26.044,12.007C26.03,12.053 26.003,12.098 26.001,12.144C25.947,13.501 25.882,14.858 25.844,16.216C25.796,17.866 25.741,19.514 25.515,21.152C25.474,21.448 25.447,21.746 25.418,22.008C22.059,21.756 18.723,21.507 15.441,21.261C15.441,20.367 15.427,19.475 15.445,18.583C15.46,17.835 15.534,17.089 15.548,16.341C15.562,15.651 15.536,14.959 15.517,14.267C15.514,14.141 15.46,14.014 15.372,13.893C15.199,16.341 14.868,18.777 15.199,21.246C13.211,21.143 11.288,20.681 9.307,20.772C9.217,20.28 9.131,19.77 9.029,19.264C8.75,17.885 8.442,16.514 7.848,15.226C7.538,14.56 7.143,13.961 6.526,13.533C5.761,13.003 5.095,13.107 4.523,13.839C4.069,14.419 3.927,15.116 3.806,15.812C3.536,17.378 3.422,18.96 3.45,20.55C3.452,20.615 3.445,20.682 3.46,20.744C3.47,20.782 3.515,20.833 3.549,20.835C3.581,20.838 3.637,20.796 3.65,20.761C3.678,20.686 3.688,20.603 3.698,20.523C3.814,19.646 3.913,18.767 4.052,17.893C4.15,17.272 4.363,16.688 4.929,16.321C5.091,16.216 5.269,16.126 5.452,16.067C5.944,15.908 6.327,16.054 6.613,16.486C6.916,16.941 7.065,17.454 7.187,17.979C7.551,19.536 7.576,21.093 7.114,22.631C6.983,23.066 6.767,23.491 6.519,23.876C6.145,24.457 5.716,24.5 5.248,23.991C4.969,23.688 4.773,23.298 4.578,22.929C4.432,22.656 4.346,22.347 4.232,22.053ZM49.984,8.623C49.684,8.623 49.383,8.62 49.084,8.623C46.372,8.657 43.66,8.696 40.948,8.724C38.277,8.752 35.605,8.769 32.934,8.793C31.892,8.801 30.85,8.813 29.808,8.824C29.157,8.831 28.507,8.838 27.857,8.848C27.728,8.849 27.686,8.79 27.648,8.668C27.047,6.722 26.167,4.921 24.837,3.361C24.764,3.275 24.694,3.189 24.604,3.082C24.684,3.06 24.735,3.036 24.787,3.032C25.8,2.946 26.811,2.846 27.826,2.783C29.101,2.703 30.378,2.602 31.653,2.602C33.622,2.602 35.592,2.666 37.562,2.731C38.667,2.767 39.77,2.856 40.874,2.929C41.229,2.953 41.603,2.942 41.932,3.054C43.611,3.625 45.119,4.491 46.379,5.755C47.466,6.847 48.541,7.949 49.984,8.623ZM48.613,17.773L48.613,17.825C48.49,17.825 48.364,17.845 48.247,17.82C48.115,17.79 47.954,17.755 47.871,17.662C47.598,17.362 47.341,17.045 47.106,16.713C46.801,16.28 46.832,16.131 47.117,15.683C47.564,14.983 48.18,14.439 48.763,13.862C48.797,13.83 48.866,13.823 48.918,13.82C49.739,13.786 50.56,13.749 51.381,13.723C54.179,13.636 56.978,13.553 59.775,13.476C59.869,13.473 59.993,13.535 60.056,13.607C60.457,14.066 60.828,14.553 61.239,15.003C61.601,15.4 61.741,15.846 61.667,16.368C61.644,16.536 61.61,16.704 61.579,16.871C61.495,17.325 61.496,17.346 61.042,17.398C60.17,17.499 59.297,17.622 58.423,17.65C56.788,17.702 55.151,17.692 53.515,17.71C51.883,17.733 50.248,17.754 48.613,17.773ZM18.072,2.735C17.852,3.358 17.624,3.939 17.441,4.535C17.056,5.793 16.695,7.058 16.329,8.322C16.295,8.439 16.265,8.502 16.124,8.498C14.163,8.439 12.2,8.385 10.238,8.329C9.924,8.321 9.611,8.298 9.27,8.281C9.306,8.219 9.322,8.186 9.345,8.155C10.062,7.142 10.537,6.015 10.922,4.844C10.95,4.758 11.035,4.667 11.116,4.629C11.596,4.404 12.077,4.183 12.566,3.984C13.522,3.594 14.469,3.179 15.448,2.852C16.29,2.569 17.18,2.755 18.072,2.735ZM18.501,2.735C19.062,2.817 19.62,2.874 20.169,2.98C21.61,3.26 22.865,3.882 23.805,5.045C24.656,6.095 25.22,7.314 25.83,8.509C25.415,8.489 25.01,8.458 24.605,8.454C24.417,8.453 24.335,8.388 24.292,8.205C24.158,7.654 23.81,7.282 23.291,7.057C22.582,6.75 21.837,6.773 21.105,6.86C20.645,6.915 20.176,7.05 19.758,7.249C19.163,7.535 19.092,8.1 19.515,8.607C19.57,8.673 19.625,8.738 19.703,8.832C18.635,8.72 17.606,8.612 16.578,8.505C17.213,6.601 17.848,4.699 18.501,2.735ZM61.199,23.795C61.019,24.056 60.839,24.368 60.612,24.638C60.25,25.066 59.91,25.536 59.467,25.865C58.178,26.824 56.701,27.018 55.15,26.724C53.757,26.462 53.157,25.309 52.459,24.291C55.372,24.126 58.294,23.961 61.199,23.795ZM46.323,13.854C45.893,14.322 45.447,14.818 44.987,15.299C44.924,15.365 44.79,15.389 44.689,15.386C44.405,15.381 44.123,15.341 43.837,15.332C43.023,15.305 42.208,15.315 41.397,15.26C40.108,15.171 38.821,15.041 37.533,14.931C36.523,14.845 35.252,14.072 34.794,13.293C38.644,13.421 42.531,13.494 46.323,13.854ZM10.498,4.934C10.461,5.027 10.443,5.087 10.416,5.143C9.959,6.102 9.491,7.057 9.051,8.024C8.953,8.242 8.846,8.256 8.648,8.218C7.873,8.07 7.47,7.536 7.193,6.864C7.876,6.286 9.439,5.371 10.498,4.934ZM61.951,15.594C61.464,14.752 60.762,14.179 60.196,13.479C60.242,13.46 60.27,13.439 60.3,13.438C60.988,13.397 61.679,13.358 62.368,13.324C62.425,13.321 62.505,13.341 62.542,13.382C63.009,13.883 63.317,14.471 63.519,15.188C62.971,15.33 62.451,15.465 61.951,15.594Z" style="fill:rgb(38,97,197);fill-rule:nonzero;stroke:rgb(38,97,197);stroke-width:0.2px;"/>
            </g>
            <g transform="matrix(1,0,0,1,1242,1635.5)">
                <path d="M36.855,12.32C36.458,12.216 36.065,12.105 35.665,12.01C33.105,11.398 30.513,10.948 27.911,10.556C26.931,10.408 25.94,10.338 24.953,10.244C23.74,10.129 22.525,10.018 21.31,9.921C20.589,9.863 19.865,9.825 19.141,9.804C16.716,9.734 14.291,9.665 11.866,9.613C9.839,9.569 7.811,9.545 5.784,9.52C5.451,9.516 5.118,9.545 4.785,9.573C4.671,9.583 4.561,9.635 4.45,9.668C4.453,9.691 4.456,9.715 4.46,9.739C4.534,9.743 4.609,9.75 4.683,9.752C6.182,9.772 7.679,9.786 9.178,9.812C10.66,9.839 12.141,9.877 13.623,9.915C15.438,9.961 17.254,9.978 19.068,10.072C20.928,10.169 22.782,10.352 24.639,10.484C27.77,10.707 30.843,11.304 33.919,11.887C34.853,12.065 35.788,12.235 36.722,12.406C36.759,12.413 36.797,12.408 36.835,12.408C36.841,12.378 36.848,12.35 36.855,12.32Z" style="fill:rgb(38,97,197);fill-rule:nonzero;stroke:rgb(38,97,197);stroke-width:0.2px;"/>
            </g>
            <g transform="matrix(1,0,0,1,1242,1635.5)">
                <path d="M28,23.462C28.079,23.873 28.173,24.284 28.231,24.7C28.315,25.302 28.566,25.819 28.982,26.251C29.619,26.913 30.506,26.951 31.215,26.36C31.813,25.863 32.145,25.189 32.385,24.477C33.094,22.38 32.991,20.3 32.173,18.254C32.039,17.921 31.837,17.596 31.599,17.328C30.649,16.252 29.238,16.361 28.466,17.568C28.272,17.871 28.134,18.221 28.033,18.566C27.799,19.365 27.732,20.193 27.709,21.022C27.706,21.134 27.743,21.247 27.763,21.36C27.794,21.36 27.825,21.36 27.854,21.358C27.884,21.135 27.905,20.909 27.944,20.686C28.071,19.985 28.185,19.281 28.341,18.585C28.447,18.11 28.699,17.698 29.059,17.36C29.529,16.92 30.127,16.83 30.705,17.113C31.204,17.357 31.533,17.759 31.76,18.254C32.077,18.947 32.259,19.68 32.363,20.432C32.585,22.047 32.417,23.615 31.695,25.092C31.533,25.423 31.315,25.745 31.058,26.005C30.424,26.646 29.592,26.578 29.02,25.878C28.636,25.409 28.445,24.848 28.283,24.276C28.206,24.004 28.134,23.732 28.059,23.459C28.041,23.459 28.021,23.46 28,23.462Z" style="fill:rgb(38,97,197);fill-rule:nonzero;stroke:rgb(38,97,197);stroke-width:0.2px;"/>
            </g>
            <g transform="matrix(1,0,0,1,1242,1635.5)">
                <path d="M49.984,8.623C48.541,7.949 47.466,6.846 46.38,5.755C45.121,4.491 43.612,3.624 41.934,3.054C41.605,2.942 41.231,2.953 40.875,2.929C39.772,2.855 38.668,2.767 37.563,2.731C35.593,2.666 33.624,2.602 31.654,2.602C30.378,2.602 29.101,2.703 27.828,2.783C26.813,2.846 25.802,2.946 24.788,3.032C24.736,3.036 24.686,3.06 24.605,3.082C24.694,3.188 24.766,3.275 24.839,3.361C26.169,4.921 27.049,6.722 27.649,8.668C27.687,8.79 27.729,8.849 27.858,8.848C28.509,8.838 29.16,8.831 29.81,8.824C30.852,8.813 31.893,8.801 32.935,8.793C35.606,8.77 38.279,8.752 40.95,8.724C43.661,8.696 46.373,8.657 49.085,8.623C49.383,8.62 49.683,8.623 49.984,8.623Z" style="fill:none;fill-rule:nonzero;stroke:rgb(38,97,197);stroke-width:0.2px;"/>
            </g>
            <g transform="matrix(1,0,0,1,1242,1635.5)">
                <path d="M48.613,17.773C50.248,17.754 51.883,17.731 53.517,17.713C55.153,17.695 56.789,17.705 58.424,17.653C59.299,17.624 60.172,17.502 61.043,17.401C61.497,17.349 61.496,17.328 61.58,16.874C61.611,16.706 61.645,16.539 61.669,16.37C61.741,15.849 61.603,15.402 61.24,15.005C60.83,14.556 60.457,14.069 60.058,13.609C59.995,13.536 59.871,13.476 59.777,13.479C56.979,13.555 54.18,13.639 51.382,13.726C50.561,13.751 49.74,13.789 48.919,13.823C48.866,13.826 48.797,13.832 48.765,13.865C48.181,14.44 47.567,14.984 47.119,15.686C46.832,16.134 46.801,16.283 47.107,16.716C47.341,17.048 47.599,17.364 47.872,17.665C47.955,17.757 48.117,17.793 48.249,17.823C48.365,17.848 48.492,17.828 48.614,17.828C48.613,17.809 48.613,17.792 48.613,17.773ZM48.285,15.912C48.276,15.88 48.266,15.848 48.257,15.814C48.394,15.767 48.527,15.693 48.668,15.679C49.233,15.618 49.801,15.53 50.366,15.533C53.012,15.547 55.658,15.587 58.302,15.617C58.839,15.623 59.376,15.616 59.914,15.621C60.006,15.623 60.096,15.656 60.187,15.676C60.184,15.701 60.182,15.725 60.177,15.75C60.068,15.77 59.958,15.803 59.847,15.81C59.23,15.845 58.613,15.902 57.996,15.901C55.911,15.897 53.827,15.867 51.742,15.853C50.945,15.848 50.148,15.852 49.351,15.862C48.995,15.867 48.641,15.895 48.285,15.912ZM48.692,16.99C48.685,16.959 48.676,16.929 48.669,16.898C48.867,16.863 49.066,16.799 49.264,16.798C51.471,16.773 53.677,16.756 55.884,16.737C56.047,16.736 56.21,16.729 56.372,16.728C57.568,16.716 58.766,16.704 59.962,16.697C60.045,16.697 60.13,16.737 60.213,16.76C60.213,16.796 60.213,16.833 60.211,16.868C60.054,16.895 59.896,16.938 59.737,16.944C58.175,16.992 56.614,17.064 55.052,17.068C53.089,17.072 51.128,17.019 49.165,16.99C49.008,16.988 48.849,16.99 48.692,16.99ZM49.745,14.696C49.74,14.688 49.736,14.679 49.732,14.671C49.915,14.631 50.095,14.565 50.279,14.557C51.539,14.499 52.798,14.437 54.059,14.408C55.158,14.383 56.258,14.383 57.357,14.398C58.154,14.409 58.95,14.463 59.746,14.505C59.884,14.512 60.02,14.557 60.156,14.584C60.154,14.62 60.151,14.658 60.148,14.695C56.68,14.696 53.211,14.696 49.745,14.696Z" style="fill:none;fill-rule:nonzero;stroke:rgb(38,97,197);stroke-width:0.2px;"/>
            </g>
            <g transform="matrix(1,0,0,1,1242,1635.5)">
                <path d="M18.072,2.735C17.178,2.755 16.29,2.57 15.449,2.851C14.472,3.178 13.523,3.593 12.567,3.982C12.078,4.182 11.597,4.404 11.118,4.628C11.036,4.666 10.952,4.757 10.924,4.843C10.538,6.014 10.063,7.14 9.346,8.153C9.324,8.184 9.307,8.22 9.272,8.28C9.612,8.297 9.925,8.318 10.239,8.328C12.202,8.384 14.163,8.437 16.125,8.497C16.267,8.501 16.297,8.437 16.33,8.321C16.696,7.057 17.057,5.792 17.442,4.533C17.624,3.939 17.853,3.358 18.072,2.735Z" style="fill:none;fill-rule:nonzero;stroke:rgb(38,97,197);stroke-width:0.2px;"/>
            </g>
            <g transform="matrix(1,0,0,1,1242,1635.5)">
                <path d="M18.501,2.735C17.848,4.699 17.214,6.601 16.58,8.505C17.607,8.613 18.635,8.72 19.705,8.832C19.626,8.738 19.571,8.674 19.516,8.608C19.093,8.101 19.165,7.535 19.76,7.25C20.177,7.05 20.647,6.915 21.106,6.86C21.84,6.773 22.585,6.749 23.292,7.057C23.813,7.282 24.16,7.654 24.293,8.205C24.338,8.388 24.419,8.453 24.607,8.454C25.012,8.459 25.417,8.489 25.831,8.509C25.221,7.314 24.658,6.095 23.807,5.045C22.866,3.883 21.611,3.258 20.17,2.98C19.62,2.875 19.064,2.817 18.501,2.735Z" style="fill:none;fill-rule:nonzero;stroke:rgb(38,97,197);stroke-width:0.2px;"/>
            </g>
            <g transform="matrix(1,0,0,1,1242,1635.5)">
                <path d="M61.199,23.795C58.293,23.959 55.372,24.127 52.459,24.291C53.156,25.309 53.758,26.462 55.15,26.725C56.701,27.019 58.178,26.823 59.467,25.866C59.909,25.537 60.25,25.067 60.612,24.638C60.839,24.369 61.019,24.056 61.199,23.795Z" style="fill:none;fill-rule:nonzero;stroke:rgb(38,97,197);stroke-width:0.2px;"/>
            </g>
            <g transform="matrix(1,0,0,1,1242,1635.5)">
                <path d="M46.323,13.854C42.531,13.495 38.644,13.421 34.793,13.294C35.252,14.073 36.524,14.846 37.533,14.932C38.821,15.041 40.107,15.172 41.396,15.261C42.208,15.316 43.023,15.306 43.837,15.332C44.121,15.342 44.405,15.38 44.689,15.387C44.789,15.39 44.924,15.366 44.987,15.3C45.447,14.817 45.892,14.322 46.323,13.854Z" style="fill:none;fill-rule:nonzero;stroke:rgb(38,97,197);stroke-width:0.2px;"/>
            </g>
            <g transform="matrix(1,0,0,1,1242,1635.5)">
                <path d="M10.498,4.934C9.439,5.369 7.876,6.285 7.192,6.864C7.469,7.537 7.873,8.071 8.648,8.218C8.846,8.256 8.953,8.24 9.051,8.024C9.49,7.056 9.959,6.102 10.416,5.143C10.443,5.087 10.461,5.028 10.498,4.934Z" style="fill:none;fill-rule:nonzero;stroke:rgb(38,97,197);stroke-width:0.2px;"/>
            </g>
            <g transform="matrix(1,0,0,1,1242,1635.5)">
                <path d="M61.952,15.594C62.451,15.465 62.972,15.329 63.518,15.187C63.317,14.47 63.009,13.882 62.541,13.38C62.504,13.341 62.424,13.32 62.366,13.323C61.676,13.356 60.987,13.397 60.298,13.436C60.269,13.438 60.241,13.459 60.194,13.477C60.762,14.179 61.464,14.752 61.952,15.594Z" style="fill:none;fill-rule:nonzero;stroke:rgb(38,97,197);stroke-width:0.2px;"/>
            </g>
            <g transform="matrix(1,0,0,1,1242,1635.5)">
                <path d="M48.285,15.912C48.641,15.896 48.995,15.867 49.351,15.863C50.148,15.853 50.945,15.849 51.742,15.855C53.827,15.869 55.911,15.898 57.995,15.903C58.612,15.904 59.23,15.846 59.847,15.811C59.958,15.804 60.068,15.772 60.177,15.752C60.18,15.727 60.183,15.703 60.187,15.678C60.096,15.658 60.006,15.624 59.914,15.623C59.377,15.617 58.84,15.624 58.302,15.619C55.656,15.589 53.01,15.548 50.366,15.534C49.799,15.531 49.233,15.619 48.668,15.681C48.527,15.696 48.394,15.769 48.257,15.815C48.266,15.848 48.275,15.88 48.285,15.912Z" style="fill:rgb(38,97,197);fill-rule:nonzero;stroke:rgb(38,97,197);stroke-width:0.2px;"/>
            </g>
            <g transform="matrix(1,0,0,1,1242,1635.5)">
                <path d="M48.692,16.99C48.85,16.99 49.008,16.989 49.167,16.99C51.129,17.018 53.09,17.072 55.053,17.068C56.615,17.063 58.177,16.992 59.739,16.944C59.897,16.94 60.055,16.895 60.212,16.868C60.212,16.831 60.212,16.795 60.214,16.76C60.131,16.737 60.046,16.695 59.964,16.696C58.767,16.703 57.569,16.715 56.373,16.727C56.21,16.729 56.047,16.736 55.885,16.737C53.678,16.757 51.472,16.772 49.265,16.798C49.067,16.8 48.869,16.864 48.67,16.897C48.676,16.928 48.683,16.959 48.692,16.99Z" style="fill:rgb(38,97,197);fill-rule:nonzero;stroke:rgb(38,97,197);stroke-width:0.2px;"/>
            </g>
            <g transform="matrix(1,0,0,1,1242,1635.5)">
                <path d="M49.745,14.836L60.148,14.836C60.151,14.8 60.153,14.762 60.156,14.725C60.02,14.698 59.884,14.653 59.746,14.646C58.95,14.604 58.153,14.551 57.357,14.539C56.258,14.524 55.158,14.523 54.059,14.549C52.798,14.579 51.539,14.641 50.279,14.698C50.095,14.707 49.915,14.773 49.732,14.812C49.736,14.819 49.74,14.828 49.745,14.836Z" style="fill:rgb(38,97,197);fill-rule:nonzero;stroke:rgb(38,97,197);stroke-width:0.2px;"/>
            </g>
        </g>
    </g>
</svg>
