<?xml version="1.0" encoding="UTF-8" standalone="no"?>
<!DOCTYPE svg PUBLIC "-//W3C//DTD SVG 1.1//EN" "http://www.w3.org/Graphics/SVG/1.1/DTD/svg11.dtd">
<svg width="100%" height="100%" viewBox="0 0 65 27" version="1.1" xmlns="http://www.w3.org/2000/svg" xmlns:xlink="http://www.w3.org/1999/xlink" xml:space="preserve" xmlns:serif="http://www.serif.com/" style="fill-rule:evenodd;clip-rule:evenodd;">
    <g transform="matrix(1,0,0,1,-1242.59,-1636.64)">
        <g id="Passenger-Back" serif:id="Passenger Back">
            <g transform="matrix(1,0,0,1,1242,1636.5)">
                <path d="M55.335,20.529C54.78,20.605 54.237,20.687 53.691,20.754C52.301,20.921 50.912,21.091 49.521,21.243C48.321,21.373 47.117,21.48 45.915,21.597C44.317,21.755 42.718,21.908 41.121,22.075C39.912,22.201 38.707,22.349 37.498,22.476C37.315,22.496 37.296,22.613 37.269,22.739C37.132,23.409 36.843,24.013 36.433,24.555C35.768,25.432 34.875,25.937 33.814,26.216C32.655,26.523 31.502,26.554 30.385,26.141C28.658,25.505 27.741,24.22 27.599,22.372C27.181,22.333 26.757,22.301 26.334,22.257C24.958,22.115 23.583,21.966 22.205,21.826C21.445,21.749 20.682,21.683 19.921,21.615C18.9,21.524 17.879,21.442 16.858,21.347C16.709,21.332 16.644,21.376 16.579,21.507C15.777,23.092 14.515,24.039 12.737,24.278C11.861,24.396 10.994,24.352 10.147,24.118C8.849,23.758 7.554,22.563 7.369,20.794C6.999,20.777 6.626,20.757 6.254,20.743C5.397,20.709 4.54,20.699 3.686,20.638C3.118,20.597 2.535,20.526 2.037,20.217C1.53,19.902 1.171,19.433 1.104,18.837C1.022,18.096 1.012,17.344 1.001,16.597C0.982,15.507 1.269,14.478 1.72,13.495C2.078,12.714 2.258,11.92 2.159,11.051C2.097,10.508 2.104,9.949 2.311,9.421C2.606,8.662 3.127,8.13 3.899,7.872C6.273,7.08 8.54,6.055 10.741,4.86C12.942,3.665 15.188,2.556 17.617,1.871C19,1.48 20.401,1.184 21.836,1.06C23.205,0.942 24.575,0.812 25.946,0.71C26.616,0.66 27.291,0.658 27.965,0.648C30.337,0.612 32.71,0.584 35.083,0.554C36.738,0.533 38.382,0.663 40.028,0.822C42.268,1.037 44.444,1.528 46.57,2.257C47.708,2.647 48.76,3.214 49.718,3.93C50.785,4.726 51.837,5.547 52.839,6.419C53.731,7.195 54.733,7.699 55.873,7.955C56.939,8.194 58.018,8.377 59.074,8.655C60.069,8.916 61.08,9.154 62.007,9.623C62.58,9.912 63.14,10.227 63.703,10.536C64.145,10.779 64.46,11.126 64.548,11.639C64.674,12.369 64.836,13.095 64.905,13.831C64.983,14.668 65.012,15.511 64.996,16.35C64.986,16.927 64.894,17.507 64.786,18.076C64.649,18.806 64.151,19.21 63.442,19.34C63.183,19.387 63.078,19.45 63,19.745C62.712,20.839 62.097,21.722 61.199,22.44C59.824,23.538 57.415,23.381 56.131,22.17C55.663,21.729 55.426,21.184 55.34,20.531L55.335,20.529ZM1.249,17.806C1.878,17.829 2.533,17.863 3.19,17.873C4.498,17.896 5.808,17.887 7.116,17.926C8.301,17.961 9.485,18.035 10.667,18.103C12.117,18.188 13.568,18.269 15.015,18.383C16.043,18.464 17.067,18.582 18.09,18.709C19.005,18.823 19.826,19.145 20.515,19.798C21.137,20.391 21.897,20.67 22.773,20.645C23.407,20.626 24.043,20.645 24.677,20.679C25.95,20.744 27.222,20.831 28.506,20.908C28.515,20.87 28.535,20.798 28.549,20.724C28.563,20.649 28.567,20.572 28.586,20.499C29.079,18.593 29.925,16.862 31.153,15.323C31.624,14.733 32.154,14.207 32.849,13.872C33.928,13.352 34.966,13.366 35.968,14.068C36.67,14.56 37.074,15.272 37.38,16.033C37.938,17.422 37.944,18.898 37.971,20.365L37.971,20.565C38.216,20.543 38.436,20.517 38.656,20.504C39.991,20.425 41.327,20.351 42.661,20.268C43.302,20.228 43.941,20.174 44.579,20.115C45.423,20.035 46.265,19.94 47.107,19.858C47.989,19.773 48.871,19.695 49.751,19.613C50.511,19.542 51.271,19.455 52.031,19.4C52.907,19.336 53.786,19.304 54.663,19.25C54.975,19.23 55.287,19.193 55.598,19.155C55.673,19.145 55.785,19.116 55.809,19.064C55.996,18.657 56.166,18.242 56.349,17.811C55.628,17.85 54.95,17.892 54.272,17.923C53.677,17.95 53.078,17.95 52.483,17.987C51.56,18.045 50.639,18.131 49.717,18.196C48.679,18.269 47.641,18.335 46.604,18.393C44.962,18.485 43.32,18.566 41.678,18.661C40.824,18.711 39.972,18.78 39.118,18.841C38.928,18.854 38.74,18.867 38.55,18.881C38.542,18.847 38.535,18.813 38.528,18.779C38.661,18.731 38.793,18.683 38.924,18.636C38.825,18.419 38.713,18.202 38.622,17.977C38.17,16.85 37.757,15.703 37.111,14.666C36.641,13.913 36.159,13.168 35.673,12.425C35.164,11.648 34.776,10.821 34.608,9.905C34.512,9.372 34.354,8.832 34.597,8.276C34.491,8.285 34.391,8.301 34.294,8.301C33.623,8.295 32.944,8.342 32.282,8.261C31.537,8.17 30.89,7.803 30.386,7.232C30.003,6.796 30.009,6.378 30.381,5.933C30.474,5.821 30.575,5.716 30.68,5.615C31.669,4.673 32.82,3.979 34.091,3.507C36.351,2.668 38.688,2.203 41.1,2.063C42.46,1.983 43.784,2.148 45.099,2.424C46.755,2.771 48.247,3.513 49.606,4.495C50.989,5.493 52.326,6.555 53.678,7.596C54.003,7.845 54.359,8.074 54.513,8.489C54.526,8.525 54.577,8.549 54.615,8.573C55.664,9.211 56.353,10.135 56.684,11.305C57.188,13.09 57.156,14.9 56.85,16.716C56.709,17.55 56.472,18.349 56.044,19.088L56.776,19.088C56.792,18.999 56.813,18.925 56.816,18.851C56.858,17.697 57.085,16.576 57.428,15.48C57.777,14.364 58.301,13.342 59.195,12.55C60.326,11.547 61.712,11.638 62.662,12.806C63.394,13.706 63.743,14.746 63.639,15.918C63.614,16.213 63.608,16.509 63.591,16.831C63.967,16.811 64.337,16.79 64.722,16.769C64.802,15.33 64.69,13.913 64.444,12.576C64.104,12.474 63.778,12.447 63.533,12.29C62.994,11.944 62.494,11.54 61.987,11.146C61.847,11.037 61.908,10.885 62.095,10.861C62.315,10.833 62.536,10.821 62.757,10.814C62.997,10.807 63.238,10.813 63.478,10.813C62.963,10.49 62.461,10.155 61.914,9.939C60.984,9.575 60.035,9.24 59.073,8.978C58.033,8.695 56.969,8.51 55.915,8.278C54.818,8.035 53.807,7.616 52.93,6.888C51.863,6.004 50.794,5.122 49.699,4.277C48.725,3.527 47.651,2.939 46.484,2.535C44.66,1.901 42.797,1.434 40.876,1.195C39.213,0.988 37.544,0.815 35.87,0.808C33.321,0.798 30.772,0.852 28.223,0.883C27.504,0.891 26.782,0.896 26.065,0.944C24.807,1.029 23.549,1.118 22.295,1.256C21.249,1.371 20.21,1.548 19.169,1.717C18.795,1.778 18.43,1.895 18.029,1.996C18.552,1.996 19.034,1.985 19.515,1.999C20.747,2.033 21.978,2.08 23.21,2.118C24.847,2.169 26.485,2.2 28.121,2.272C28.951,2.309 29.781,2.403 30.607,2.498C31.013,2.545 31.416,2.638 31.847,2.9C31.756,2.951 31.7,2.978 31.651,3.012C31.289,3.256 30.943,3.526 30.568,3.741C28.977,4.654 27.311,5.435 25.791,6.473C24.585,7.298 23.31,8.008 22.015,8.685C21.435,8.987 20.893,9.364 20.334,9.71C20.271,9.749 20.217,9.809 20.129,9.884C20.712,9.949 21.243,10.009 21.773,10.068C23.451,10.257 24.858,10.918 25.803,12.381C25.893,12.52 25.969,12.669 26.059,12.83C23.325,13.053 20.651,13.404 17.961,12.907C17.914,12.983 17.865,13.06 17.819,13.139C17.519,13.662 17.231,14.194 16.918,14.709C16.559,15.297 16.039,15.636 15.333,15.64C14.537,15.644 13.742,15.649 12.947,15.64C11.968,15.63 10.989,15.62 10.011,15.585C8.688,15.537 7.365,15.483 6.045,15.392C5.445,15.351 4.843,15.259 4.259,15.118C3.577,14.955 3.106,14.532 2.996,13.796C2.911,13.231 2.83,12.666 2.746,12.087C2.66,12.077 2.556,12.066 2.492,12.059C2.355,12.481 2.248,12.887 2.092,13.274C1.696,14.261 1.267,15.236 1.245,16.325C1.235,16.806 1.243,17.286 1.243,17.814L1.249,17.806ZM28.451,21.252C28.384,21.23 28.329,21.201 28.271,21.195C27.562,21.132 26.855,21.053 26.146,21.02C25.016,20.967 23.883,20.93 22.752,20.916C21.887,20.904 21.106,20.694 20.448,20.109C20.344,20.017 20.237,19.932 20.135,19.84C19.733,19.478 19.266,19.247 18.742,19.124C17.502,18.83 16.237,18.721 14.973,18.629C13.882,18.548 12.789,18.491 11.699,18.427C10.219,18.34 8.739,18.23 7.256,18.174C5.979,18.124 4.7,18.144 3.422,18.117C2.811,18.104 2.202,18.056 1.591,18.02C1.474,18.013 1.358,17.991 1.209,17.971C1.235,18.215 1.242,18.42 1.28,18.62C1.402,19.26 1.694,19.804 2.311,20.075C2.654,20.225 3.038,20.323 3.411,20.356C4.247,20.432 5.088,20.465 5.929,20.494C7.603,20.551 9.279,20.581 10.953,20.646C11.854,20.68 12.752,20.765 13.653,20.825C14.431,20.876 15.211,20.914 15.988,20.975C17.223,21.072 18.456,21.179 19.689,21.284C20.459,21.349 21.229,21.405 21.998,21.483C23.738,21.658 25.478,21.846 27.219,22.026C27.569,22.061 27.921,22.078 28.271,22.113C28.325,22.119 28.374,22.174 28.427,22.206C28.377,22.24 28.331,22.294 28.275,22.305C28.119,22.336 27.96,22.349 27.783,22.372C27.8,22.484 27.816,22.587 27.834,22.691C28.124,24.375 29.327,25.664 30.949,26.053C32.137,26.338 33.287,26.18 34.413,25.768C35.354,25.425 36.086,24.814 36.563,23.932C36.797,23.5 36.96,23.029 37.167,22.549L36.684,22.549C36.746,22.461 36.82,22.407 36.899,22.391C37.534,22.264 38.168,22.115 38.81,22.026C39.779,21.89 40.753,21.79 41.725,21.684C43.116,21.532 44.507,21.378 45.899,21.242C47.314,21.104 48.733,21.008 50.147,20.855C51.75,20.682 53.349,20.466 54.948,20.268C55.574,20.19 56.199,20.106 56.841,20.024C56.82,19.728 56.803,19.479 56.784,19.226C56.721,19.226 56.684,19.223 56.647,19.226C55.575,19.329 54.505,19.443 53.433,19.535C52.52,19.614 51.603,19.659 50.69,19.739C49.639,19.83 48.591,19.94 47.542,20.042C46.69,20.124 45.84,20.212 44.987,20.285C43.709,20.394 42.43,20.502 41.15,20.591C40.258,20.653 39.363,20.687 38.47,20.726C38.235,20.735 37.998,20.717 37.787,20.713C37.815,20.534 37.859,20.412 37.851,20.296C37.795,19.58 37.733,18.864 37.666,18.15C37.559,16.979 37.203,15.898 36.512,14.934C35.918,14.105 34.73,13.499 33.539,13.869C32.782,14.105 32.165,14.533 31.654,15.12C30.157,16.831 29.239,18.834 28.702,21.025C28.635,21.3 28.594,21.58 28.54,21.858C28.367,21.674 28.45,21.473 28.45,21.256L28.451,21.252ZM45.981,18.189C46.15,18.178 46.3,18.167 46.451,18.158C47.123,18.123 47.796,18.1 48.467,18.05C49.731,17.957 50.994,17.822 52.26,17.754C53.536,17.686 54.815,17.67 56.093,17.652C56.331,17.649 56.414,17.581 56.465,17.354C56.847,15.663 56.906,13.964 56.638,12.252C56.463,11.128 56.013,10.146 55.184,9.355C54.736,8.927 54.272,8.533 53.582,8.634C53.478,8.649 53.369,8.611 53.263,8.605C51.812,8.526 50.361,8.444 48.91,8.37C47.673,8.306 46.435,8.251 45.197,8.194C45.088,8.189 44.979,8.194 44.917,8.194C45.169,8.637 45.468,9.051 45.657,9.51C46.092,10.575 46.261,11.71 46.29,12.85C46.339,14.629 46.409,16.414 45.983,18.189L45.981,18.189ZM45.806,18.202C45.879,17.602 45.994,17.038 46.012,16.47C46.064,14.865 46.113,13.258 45.893,11.658C45.722,10.412 45.396,9.233 44.525,8.272C44.487,8.23 44.412,8.198 44.352,8.197C43.068,8.159 41.783,8.089 40.499,8.099C38.762,8.113 37.027,8.19 35.292,8.235C34.749,8.249 34.74,8.245 34.774,8.785C34.855,10.098 35.269,11.302 36.022,12.379C37.309,14.221 38.317,16.2 38.985,18.347C39.048,18.551 39.115,18.673 39.359,18.581C39.477,18.537 39.614,18.537 39.743,18.53C41.07,18.45 42.399,18.371 43.726,18.297C44.42,18.259 45.115,18.233 45.804,18.202L45.806,18.202ZM31.474,2.922C31.352,2.865 31.295,2.822 31.233,2.812C30.524,2.7 29.818,2.552 29.105,2.495C28.053,2.411 26.996,2.387 25.942,2.35C25.063,2.321 24.182,2.305 23.302,2.291C21.581,2.262 19.858,2.224 18.137,2.223C17.654,2.223 17.147,2.267 16.692,2.416C15.816,2.702 14.946,3.028 14.116,3.428C12.368,4.27 10.65,5.172 8.917,6.045C8.567,6.221 8.209,6.38 7.878,6.534C9.553,6.592 11.241,6.656 12.93,6.706C13.909,6.734 14.89,6.715 15.869,6.764C16.729,6.805 17.587,6.928 18.448,6.976C19.44,7.032 20.435,7.034 21.429,7.078C22.237,7.114 23.045,7.165 23.852,7.236C24.048,7.253 24.201,7.24 24.365,7.132C25.302,6.513 26.222,5.861 27.194,5.298C28.441,4.572 29.731,3.92 31.002,3.232C31.146,3.154 31.278,3.051 31.474,2.92L31.474,2.922ZM44.415,7.919C44.185,7.355 43.982,6.854 43.777,6.355C43.211,4.983 42.546,3.662 41.776,2.394C41.738,2.33 41.642,2.262 41.574,2.264C40.977,2.279 40.377,2.274 39.786,2.345C39.098,2.428 38.418,2.583 37.736,2.712C36.049,3.028 34.406,3.476 32.89,4.315C32.042,4.785 31.234,5.308 30.59,6.042C30.185,6.504 30.125,6.605 30.597,7.154C31.319,7.991 32.292,8.184 33.341,8.126C33.691,8.106 34.041,8.068 34.391,8.052C35.568,8.001 36.745,7.957 37.92,7.909C38.554,7.884 39.188,7.841 39.821,7.831C40.502,7.821 41.182,7.834 41.863,7.848C42.688,7.865 43.513,7.895 44.413,7.921L44.415,7.919ZM23.907,7.423C23.9,7.396 23.893,7.368 23.887,7.341C22.881,7.301 21.876,7.239 20.869,7.227C19.621,7.215 18.379,7.162 17.136,7.05C16.003,6.948 14.861,6.942 13.722,6.9C13.355,6.886 12.988,6.891 12.619,6.884C10.899,6.849 9.178,6.809 7.459,6.776C7.364,6.775 7.263,6.808 7.174,6.846C6.499,7.131 5.828,7.424 5.152,7.707C4.962,7.786 4.765,7.847 4.565,7.899C3.825,8.091 3.177,8.42 2.767,9.102C2.719,9.182 2.682,9.27 2.634,9.368C2.799,9.368 2.928,9.367 3.057,9.368C3.561,9.377 4.067,9.368 4.571,9.398C5.516,9.455 6.459,9.565 7.405,9.596C9.363,9.662 11.322,9.694 13.281,9.732C15.302,9.772 17.322,9.796 19.342,9.847C19.658,9.856 19.896,9.799 20.142,9.588C20.899,8.941 21.81,8.546 22.682,8.088C23.093,7.872 23.497,7.646 23.904,7.423L23.907,7.423ZM2.933,12.134C3.011,12.567 3.12,13.05 3.18,13.541C3.282,14.377 3.791,14.798 4.569,14.926C5.209,15.031 5.855,15.114 6.502,15.155C8.02,15.25 9.54,15.334 11.061,15.385C12.392,15.429 13.724,15.42 15.056,15.439C15.819,15.449 16.422,15.172 16.814,14.49C17.133,13.935 17.464,13.386 17.763,12.876C16.965,12.473 16.137,12.094 15.348,11.646C14.615,11.23 13.84,11.021 13.011,10.997C11.535,10.955 10.059,10.922 8.581,10.903C7.824,10.894 7.066,10.94 6.309,10.929C5.509,10.918 4.796,11.14 4.123,11.564C3.767,11.788 3.36,11.933 2.933,12.134ZM54.241,8.401C54.082,8.258 53.939,8.112 53.78,7.987C52.571,7.037 51.369,6.08 50.145,5.149C48.942,4.233 47.643,3.479 46.215,2.961C45.219,2.6 44.179,2.437 43.134,2.304C42.737,2.252 42.339,2.216 41.976,2.176C42.451,3.112 42.95,4.029 43.385,4.976C43.822,5.927 44.192,6.91 44.586,7.864C47.765,8.041 50.979,8.22 54.242,8.401L54.241,8.401ZM55.516,20.503C55.636,21.064 55.843,21.568 56.266,21.949C57.309,22.892 58.542,23.131 59.876,22.807C60.829,22.574 61.544,21.953 62.091,21.159C62.505,20.558 62.737,19.883 62.891,19.162C63.139,17.996 63.411,16.842 63.414,15.639C63.415,14.77 63.174,13.994 62.696,13.288C62.523,13.032 62.306,12.792 62.068,12.593C61.266,11.926 60.197,12.008 59.335,12.772C58.751,13.29 58.331,13.926 58.022,14.632C57.33,16.206 57.045,17.869 57.008,19.579C56.998,20.059 57.004,20.062 56.545,20.218C56.344,20.286 56.139,20.344 55.935,20.402C55.805,20.439 55.67,20.466 55.517,20.503L55.516,20.503ZM2.477,11.856C2.542,11.861 2.587,11.866 2.631,11.866C3.136,11.87 3.566,11.659 3.971,11.39C4.647,10.942 5.389,10.712 6.195,10.714C8.484,10.721 10.772,10.729 13.06,10.762C13.909,10.773 14.709,10.993 15.464,11.419C16.188,11.828 16.955,12.158 17.699,12.53C17.912,12.636 18.018,12.575 18.116,12.368C18.493,11.583 18.886,10.803 19.49,10.158C19.495,10.151 19.487,10.131 19.482,10.093C18.737,10.07 17.988,10.043 17.24,10.026C15.167,9.978 13.094,9.932 11.02,9.89C9.986,9.869 8.953,9.867 7.921,9.839C7.279,9.822 6.638,9.776 5.997,9.735C4.945,9.666 3.894,9.584 2.842,9.517C2.541,9.499 2.487,9.54 2.481,9.843C2.465,10.507 2.477,11.17 2.477,11.856ZM16.484,21.32C13.47,21.069 10.512,20.837 7.488,20.778C7.637,21.172 7.741,21.524 7.898,21.85C8.421,22.936 9.259,23.66 10.442,23.947C11.204,24.131 11.974,24.152 12.758,24.045C14.475,23.808 15.601,22.788 16.484,21.32ZM25.72,12.643C25.607,12.508 25.512,12.411 25.433,12.3C24.66,11.204 23.558,10.633 22.28,10.396C21.547,10.26 20.794,10.229 20.052,10.137C19.905,10.118 19.811,10.152 19.709,10.253C19.013,10.942 18.623,11.826 18.121,12.684C20.668,13.139 23.177,12.82 25.719,12.645L25.72,12.643ZM63.086,19.142C64.321,18.966 64.657,18.334 64.698,16.983C64.323,17.007 63.947,17.032 63.578,17.056C63.418,17.738 63.254,18.433 63.088,19.143L63.086,19.142ZM62.258,11.024C62.916,11.52 63.452,12.199 64.389,12.219C64.296,11.87 64.239,11.543 64.114,11.244C64.06,11.115 63.869,10.963 63.738,10.96C63.246,10.95 62.752,10.999 62.258,11.024Z" style="fill:rgb(38,97,197);fill-rule:nonzero;stroke:rgb(38,97,197);stroke-width:0.2px;"/>
            </g>
            <g transform="matrix(1,0,0,1,1242,1636.5)">
                <path d="M28.451,21.251C28.451,21.468 28.369,21.67 28.542,21.854C28.594,21.576 28.635,21.295 28.703,21.02C29.241,18.828 30.158,16.825 31.655,15.115C32.168,14.53 32.784,14.102 33.541,13.865C34.732,13.495 35.918,14.1 36.514,14.93C37.204,15.894 37.56,16.974 37.668,18.145C37.734,18.861 37.797,19.576 37.852,20.292C37.861,20.408 37.818,20.528 37.788,20.708C37.998,20.713 38.235,20.731 38.472,20.721C39.365,20.683 40.259,20.649 41.151,20.586C42.431,20.497 43.71,20.389 44.989,20.28C45.841,20.208 46.692,20.12 47.544,20.038C48.593,19.937 49.64,19.825 50.691,19.734C51.604,19.655 52.521,19.61 53.434,19.53C54.506,19.438 55.577,19.325 56.648,19.221C56.685,19.218 56.722,19.221 56.786,19.221C56.804,19.475 56.821,19.723 56.843,20.019C56.2,20.103 55.575,20.187 54.95,20.263C53.349,20.462 51.75,20.677 50.148,20.85C48.734,21.003 47.315,21.098 45.901,21.237C44.508,21.373 43.118,21.528 41.727,21.68C40.754,21.786 39.78,21.885 38.812,22.021C38.171,22.112 37.537,22.259 36.901,22.387C36.82,22.403 36.748,22.456 36.685,22.544L37.169,22.544C36.962,23.025 36.799,23.496 36.565,23.928C36.087,24.808 35.354,25.42 34.414,25.764C33.288,26.175 32.139,26.334 30.951,26.049C29.329,25.659 28.125,24.37 27.836,22.686C27.817,22.583 27.803,22.478 27.785,22.367C27.962,22.344 28.121,22.332 28.277,22.301C28.332,22.289 28.377,22.235 28.428,22.201C28.376,22.169 28.326,22.115 28.272,22.109C27.922,22.074 27.571,22.057 27.22,22.021C25.479,21.841 23.74,21.654 21.999,21.478C21.231,21.4 20.461,21.345 19.691,21.28C18.457,21.176 17.224,21.067 15.989,20.971C15.212,20.91 14.432,20.871 13.654,20.82C12.754,20.761 11.855,20.677 10.955,20.642C9.28,20.578 7.605,20.547 5.93,20.49C5.09,20.462 4.249,20.428 3.412,20.351C3.04,20.317 2.655,20.219 2.312,20.07C1.696,19.8 1.404,19.257 1.282,18.616C1.243,18.416 1.236,18.209 1.211,17.967C1.36,17.986 1.476,18.01 1.592,18.016C2.202,18.052 2.813,18.1 3.424,18.113C4.701,18.139 5.981,18.121 7.257,18.169C8.739,18.226 10.219,18.335 11.701,18.423C12.792,18.488 13.884,18.545 14.974,18.624C16.24,18.718 17.505,18.827 18.744,19.119C19.267,19.242 19.735,19.475 20.136,19.835C20.238,19.927 20.346,20.014 20.449,20.104C21.107,20.69 21.888,20.9 22.753,20.911C23.885,20.927 25.017,20.964 26.147,21.016C26.858,21.05 27.565,21.129 28.272,21.19C28.331,21.196 28.386,21.226 28.452,21.247L28.451,21.251ZM30.977,20.224C30.963,21.002 31.109,21.928 31.37,22.659C31.644,23.428 32.036,24.122 32.686,24.643C33.551,25.337 34.615,25.309 35.415,24.541C35.681,24.284 35.917,23.978 36.1,23.656C36.6,22.775 36.806,21.821 36.826,20.802C36.843,19.92 36.776,19.06 36.514,18.22C36.247,17.365 35.842,16.591 35.113,16.033C34.295,15.408 33.362,15.422 32.557,16.061C32.166,16.372 31.878,16.766 31.652,17.205C31.166,18.152 30.99,19.17 30.98,20.224L30.977,20.224Z" style="fill:none;fill-rule:nonzero;stroke:rgb(38,97,197);stroke-width:0.2px;"/>
            </g>
            <g transform="matrix(1,0,0,1,1242,1636.5)">
                <path d="M45.981,18.19C46.407,16.415 46.336,14.63 46.289,12.851C46.258,11.711 46.09,10.577 45.655,9.511C45.468,9.052 45.169,8.638 44.915,8.195C44.978,8.195 45.087,8.191 45.196,8.195C46.434,8.253 47.671,8.309 48.909,8.371C50.359,8.446 51.811,8.527 53.261,8.606C53.368,8.612 53.478,8.649 53.58,8.635C54.271,8.534 54.734,8.928 55.182,9.356C56.012,10.148 56.461,11.13 56.637,12.253C56.905,13.965 56.845,15.664 56.464,17.355C56.413,17.582 56.329,17.65 56.091,17.653C54.814,17.671 53.535,17.687 52.259,17.755C50.993,17.823 49.731,17.958 48.465,18.051C47.795,18.101 47.121,18.124 46.449,18.159C46.299,18.168 46.149,18.179 45.98,18.19L45.981,18.19Z" style="fill:none;fill-rule:nonzero;stroke:rgb(38,97,197);stroke-width:0.2px;"/>
            </g>
            <g transform="matrix(1,0,0,1,1242,1636.5)">
                <path d="M45.806,18.201C45.116,18.233 44.422,18.258 43.727,18.296C42.399,18.37 41.072,18.45 39.745,18.529C39.616,18.536 39.478,18.536 39.36,18.58C39.115,18.672 39.048,18.549 38.986,18.346C38.317,16.198 37.309,14.22 36.023,12.379C35.27,11.301 34.856,10.098 34.776,8.785C34.742,8.245 34.75,8.249 35.293,8.235C37.028,8.189 38.765,8.113 40.5,8.099C41.785,8.089 43.069,8.158 44.354,8.196C44.413,8.198 44.487,8.229 44.527,8.272C45.397,9.231 45.723,10.411 45.895,11.657C46.115,13.258 46.066,14.864 46.014,16.469C45.995,17.037 45.882,17.603 45.807,18.201L45.806,18.201Z" style="fill:none;fill-rule:nonzero;stroke:rgb(38,97,197);stroke-width:0.2px;"/>
            </g>
            <g transform="matrix(1,0,0,1,1242,1636.5)">
                <path d="M31.472,2.923C31.278,3.052 31.146,3.156 31,3.235C29.73,3.923 28.44,4.575 27.192,5.301C26.221,5.865 25.301,6.516 24.364,7.135C24.199,7.244 24.046,7.256 23.851,7.239C23.044,7.168 22.236,7.117 21.428,7.081C20.434,7.037 19.439,7.035 18.446,6.979C17.586,6.931 16.728,6.808 15.867,6.767C14.889,6.72 13.908,6.738 12.928,6.708C11.24,6.659 9.551,6.595 7.877,6.537C8.207,6.382 8.566,6.224 8.916,6.048C10.649,5.175 12.367,4.273 14.115,3.431C14.944,3.031 15.816,2.705 16.691,2.418C17.146,2.27 17.652,2.224 18.136,2.226C19.857,2.226 21.579,2.265 23.3,2.294C24.181,2.308 25.061,2.323 25.94,2.353C26.995,2.39 28.051,2.414 29.103,2.498C29.816,2.555 30.522,2.703 31.231,2.815C31.294,2.825 31.35,2.868 31.472,2.925L31.472,2.923Z" style="fill:none;fill-rule:nonzero;stroke:rgb(38,97,197);stroke-width:0.2px;"/>
            </g>
            <g transform="matrix(1,0,0,1,1242,1636.5)">
                <path d="M44.415,7.92C43.514,7.895 42.689,7.865 41.864,7.848C41.184,7.834 40.503,7.821 39.823,7.831C39.189,7.841 38.555,7.884 37.922,7.909C36.745,7.957 35.568,8.001 34.393,8.052C34.043,8.068 33.692,8.106 33.342,8.126C32.293,8.184 31.321,7.991 30.599,7.153C30.127,6.606 30.186,6.506 30.592,6.042C31.235,5.308 32.044,4.784 32.891,4.315C34.407,3.476 36.05,3.028 37.737,2.712C38.42,2.584 39.1,2.43 39.787,2.345C40.377,2.272 40.978,2.278 41.575,2.264C41.643,2.262 41.739,2.33 41.778,2.394C42.548,3.662 43.214,4.984 43.778,6.355C43.984,6.854 44.186,7.355 44.416,7.919L44.415,7.92Z" style="fill:none;fill-rule:nonzero;stroke:rgb(38,97,197);stroke-width:0.2px;"/>
            </g>
            <g transform="matrix(1,0,0,1,1242,1636.5)">
                <path d="M23.907,7.424C23.5,7.645 23.095,7.872 22.685,8.089C21.813,8.547 20.902,8.944 20.145,9.589C19.898,9.799 19.66,9.855 19.345,9.848C17.325,9.797 15.304,9.773 13.284,9.733C11.325,9.695 9.366,9.662 7.408,9.597C6.462,9.566 5.519,9.455 4.574,9.399C4.07,9.369 3.564,9.376 3.059,9.369C2.93,9.368 2.8,9.369 2.637,9.369C2.685,9.273 2.722,9.183 2.77,9.102C3.181,8.421 3.828,8.092 4.568,7.9C4.766,7.849 4.965,7.787 5.155,7.707C5.831,7.425 6.502,7.132 7.177,6.847C7.266,6.809 7.367,6.776 7.462,6.777C9.181,6.81 10.902,6.848 12.622,6.885C12.989,6.892 13.358,6.888 13.725,6.901C14.864,6.943 16.006,6.949 17.139,7.051C18.382,7.162 19.624,7.214 20.872,7.228C21.878,7.24 22.884,7.302 23.89,7.342C23.897,7.369 23.904,7.397 23.91,7.424L23.907,7.424Z" style="fill:none;fill-rule:nonzero;stroke:rgb(38,97,197);stroke-width:0.2px;"/>
            </g>
            <g transform="matrix(1,0,0,1,1242,1636.5)">
                <path d="M2.935,12.136C3.361,11.935 3.768,11.792 4.124,11.566C4.799,11.141 5.511,10.918 6.31,10.931C7.067,10.943 7.826,10.896 8.583,10.906C10.059,10.924 11.536,10.957 13.012,10.999C13.841,11.023 14.615,11.232 15.35,11.649C16.138,12.097 16.966,12.475 17.764,12.878C17.464,13.388 17.135,13.937 16.816,14.493C16.424,15.175 15.822,15.451 15.058,15.441C13.726,15.424 12.394,15.432 11.063,15.387C9.541,15.336 8.021,15.253 6.503,15.158C5.857,15.116 5.21,15.033 4.571,14.928C3.791,14.8 3.283,14.379 3.181,13.543C3.122,13.052 3.013,12.567 2.935,12.136ZM9.927,11.765L9.927,11.772C9.33,11.772 8.733,11.766 8.136,11.779C8.055,11.78 7.925,11.858 7.907,11.925C7.829,12.202 7.788,12.489 7.728,12.771C7.644,13.167 7.538,13.558 7.478,13.957C7.437,14.232 7.545,14.352 7.803,14.43C7.883,14.454 7.966,14.471 8.05,14.483C9.041,14.613 10.032,14.596 11.027,14.538C11.523,14.51 11.757,14.463 11.881,13.76C11.968,13.258 11.99,12.743 12.032,12.233C12.063,11.851 11.987,11.769 11.603,11.766C11.044,11.762 10.486,11.766 9.925,11.766L9.927,11.765ZM3.704,13.555C4.001,13.822 5.803,13.866 6.085,13.591C5.257,13.538 4.483,13.49 3.704,13.555ZM15.08,13.901L15.08,13.879C15.241,13.879 15.401,13.889 15.56,13.874C15.622,13.869 15.68,13.808 15.741,13.772C15.686,13.733 15.63,13.663 15.574,13.66C15.072,13.636 14.569,13.622 14.067,13.615C14.007,13.615 13.948,13.68 13.888,13.716C13.943,13.755 13.997,13.826 14.055,13.832C14.396,13.863 14.739,13.88 15.08,13.901Z" style="fill:none;fill-rule:nonzero;stroke:rgb(38,97,197);stroke-width:0.2px;"/>
            </g>
            <g transform="matrix(1,0,0,1,1242,1636.5)">
                <path d="M54.241,8.403C50.977,8.222 47.762,8.043 44.585,7.866C44.192,6.912 43.821,5.93 43.384,4.978C42.95,4.031 42.45,3.113 41.975,2.178C42.339,2.217 42.737,2.256 43.133,2.305C44.178,2.439 45.217,2.602 46.214,2.963C47.642,3.481 48.94,4.235 50.144,5.151C51.367,6.082 52.57,7.039 53.779,7.989C53.938,8.114 54.081,8.26 54.24,8.403L54.241,8.403Z" style="fill:none;fill-rule:nonzero;stroke:rgb(38,97,197);stroke-width:0.2px;"/>
            </g>
            <g transform="matrix(1,0,0,1,1242,1636.5)">
                <path d="M55.516,20.506C55.669,20.469 55.802,20.442 55.934,20.406C56.138,20.347 56.342,20.289 56.543,20.221C57.004,20.065 56.997,20.062 57.007,19.582C57.044,17.872 57.329,16.209 58.021,14.635C58.331,13.929 58.751,13.293 59.334,12.775C60.195,12.011 61.266,11.929 62.067,12.597C62.305,12.795 62.521,13.035 62.695,13.291C63.173,13.997 63.414,14.773 63.412,15.642C63.409,16.847 63.137,18 62.889,19.165C62.736,19.885 62.504,20.562 62.09,21.163C61.542,21.958 60.828,22.579 59.875,22.81C58.542,23.135 57.309,22.895 56.264,21.952C55.842,21.571 55.636,21.068 55.514,20.506L55.516,20.506ZM62.881,17.682C62.823,17.197 62.791,16.707 62.699,16.227C62.539,15.39 62.236,14.606 61.619,13.986C60.863,13.227 59.919,13.264 59.21,14.065C58.864,14.457 58.636,14.916 58.486,15.411C58.022,16.939 58.06,18.46 58.584,19.966C58.789,20.557 59.092,21.099 59.583,21.509C60.262,22.076 61.079,22.057 61.683,21.412C61.965,21.11 62.2,20.744 62.374,20.37C62.767,19.524 62.891,18.618 62.881,17.684L62.881,17.682Z" style="fill:none;fill-rule:nonzero;stroke:rgb(38,97,197);stroke-width:0.2px;"/>
            </g>
            <g transform="matrix(1,0,0,1,1242,1636.5)">
                <path d="M2.477,11.859C2.477,11.172 2.467,10.509 2.481,9.845C2.488,9.542 2.542,9.501 2.842,9.519C3.894,9.586 4.945,9.668 5.997,9.738C6.638,9.78 7.279,9.824 7.921,9.841C8.953,9.87 9.986,9.871 11.02,9.892C13.093,9.935 15.165,9.98 17.24,10.028C17.988,10.045 18.737,10.072 19.482,10.095C19.487,10.133 19.495,10.153 19.49,10.16C18.884,10.805 18.493,11.585 18.116,12.37C18.017,12.577 17.91,12.638 17.699,12.532C16.955,12.161 16.188,11.83 15.465,11.422C14.71,10.997 13.911,10.777 13.06,10.764C10.772,10.733 8.484,10.723 6.195,10.716C5.39,10.713 4.647,10.944 3.971,11.392C3.566,11.66 3.136,11.873 2.631,11.868C2.586,11.868 2.541,11.863 2.477,11.859Z" style="fill:none;fill-rule:nonzero;stroke:rgb(38,97,197);stroke-width:0.2px;"/>
            </g>
            <g transform="matrix(1,0,0,1,1242,1636.5)">
                <path d="M16.484,21.323C15.601,22.79 14.475,23.811 12.758,24.048C11.974,24.156 11.204,24.134 10.442,23.95C9.259,23.664 8.421,22.941 7.898,21.853C7.741,21.527 7.637,21.174 7.488,20.781C10.512,20.842 13.47,21.073 16.484,21.323Z" style="fill:none;fill-rule:nonzero;stroke:rgb(38,97,197);stroke-width:0.2px;"/>
            </g>
            <g transform="matrix(1,0,0,1,1242,1636.5)">
                <path d="M25.721,12.645C23.179,12.822 20.669,13.141 18.123,12.684C18.623,11.828 19.015,10.943 19.711,10.253C19.813,10.152 19.906,10.118 20.054,10.137C20.795,10.229 21.548,10.261 22.281,10.396C23.56,10.633 24.662,11.204 25.434,12.3C25.512,12.411 25.609,12.509 25.722,12.643L25.721,12.645Z" style="fill:none;fill-rule:nonzero;stroke:rgb(38,97,197);stroke-width:0.2px;"/>
            </g>
            <g transform="matrix(1,0,0,1,1242,1636.5)">
                <path d="M63.085,19.145C63.252,18.436 63.415,17.74 63.575,17.058C63.944,17.034 64.32,17.01 64.695,16.984C64.654,18.336 64.32,18.968 63.085,19.144L63.085,19.145Z" style="fill:none;fill-rule:nonzero;stroke:rgb(38,97,197);stroke-width:0.2px;"/>
            </g>
            <g transform="matrix(1,0,0,1,1242,1636.5)">
                <path d="M62.258,11.026C62.752,11.001 63.245,10.952 63.738,10.962C63.87,10.965 64.06,11.117 64.114,11.246C64.239,11.545 64.295,11.872 64.389,12.221C63.452,12.201 62.917,11.522 62.258,11.026Z" style="fill:none;fill-rule:nonzero;stroke:rgb(38,97,197);stroke-width:0.2px;"/>
            </g>
            <g transform="matrix(1,0,0,1,1242,1636.5)">
                <path d="M32.731,9.484C30.039,9.897 27.31,9.948 24.591,10.136L24.575,10.049C24.73,10.01 24.883,9.952 25.039,9.937C25.729,9.866 26.42,9.798 27.111,9.745C28.329,9.653 29.547,9.557 30.766,9.491C31.42,9.457 32.075,9.486 32.73,9.486L32.731,9.484Z" style="fill:rgb(38,97,197);fill-rule:nonzero;stroke:rgb(38,97,197);stroke-width:0.2px;"/>
            </g>
            <g transform="matrix(1,0,0,1,1242,1636.5)">
                <path d="M28.379,18.136C28.132,18.189 27.887,18.271 27.637,18.288C26.231,18.386 24.829,18.341 23.429,18.169C23.035,18.121 22.64,18.1 22.244,18.061C22.135,18.051 22.027,18.022 21.918,18.002C21.918,17.976 21.915,17.951 21.915,17.927C22.017,17.911 22.121,17.877 22.223,17.881C22.787,17.905 23.35,17.944 23.914,17.969C24.99,18.017 26.065,18.07 27.142,18.1C27.505,18.11 27.871,18.054 28.235,18.03C28.277,18.027 28.319,18.036 28.362,18.04C28.367,18.073 28.373,18.104 28.379,18.136Z" style="fill:rgb(38,97,197);fill-rule:nonzero;stroke:rgb(38,97,197);stroke-width:0.2px;"/>
            </g>
            <g transform="matrix(1,0,0,1,1242,1636.5)">
                <path d="M30.976,20.223C30.986,19.169 31.162,18.152 31.648,17.205C31.875,16.764 32.161,16.371 32.552,16.061C33.359,15.421 34.291,15.407 35.109,16.032C35.839,16.591 36.243,17.365 36.509,18.22C36.772,19.059 36.838,19.92 36.821,20.802C36.801,21.82 36.596,22.775 36.095,23.656C35.913,23.977 35.677,24.285 35.411,24.54C34.611,25.309 33.546,25.337 32.681,24.642C32.033,24.122 31.641,23.427 31.366,22.659C31.105,21.927 30.959,21.002 30.973,20.223L30.976,20.223ZM36.57,20.609C36.545,19.642 36.406,18.84 36.108,18.068C35.839,17.372 35.474,16.74 34.861,16.289C34.184,15.794 33.434,15.797 32.791,16.333C32.531,16.55 32.279,16.815 32.124,17.111C30.965,19.34 31.057,21.553 32.307,23.714C32.481,24.014 32.765,24.272 33.047,24.485C33.672,24.957 34.38,24.951 34.999,24.474C35.262,24.272 35.503,24.019 35.686,23.744C36.348,22.755 36.512,21.624 36.57,20.609Z" style="fill:rgb(38,97,197);fill-rule:nonzero;stroke:rgb(38,97,197);stroke-width:0.2px;"/>
            </g>
            <g transform="matrix(1,0,0,1,1242,1636.5)">
                <path d="M9.925,11.764C10.484,11.764 11.043,11.761 11.603,11.764C11.987,11.767 12.063,11.849 12.032,12.23C11.99,12.741 11.968,13.254 11.881,13.757C11.757,14.461 11.523,14.506 11.027,14.536C10.032,14.594 9.039,14.611 8.05,14.48C7.966,14.469 7.884,14.452 7.803,14.428C7.545,14.35 7.437,14.23 7.478,13.955C7.538,13.556 7.644,13.165 7.728,12.769C7.787,12.487 7.829,12.199 7.907,11.923C7.925,11.856 8.055,11.778 8.136,11.777C8.733,11.764 9.33,11.77 9.927,11.77L9.927,11.763L9.925,11.764ZM8.084,12.001C7.956,12.622 7.82,13.23 7.711,13.842C7.658,14.135 7.711,14.204 8.006,14.24C8.452,14.293 8.902,14.337 9.351,14.343C9.962,14.352 10.573,14.318 11.186,14.31C11.423,14.307 11.533,14.162 11.588,13.969C11.774,13.332 11.775,12.677 11.81,12L8.082,12L8.084,12.001Z" style="fill:rgb(38,97,197);fill-rule:nonzero;stroke:rgb(38,97,197);stroke-width:0.2px;"/>
            </g>
            <g transform="matrix(1,0,0,1,1242,1636.5)">
                <path d="M3.704,13.554C4.483,13.49 5.257,13.538 6.085,13.589C5.803,13.863 4.001,13.82 3.704,13.554Z" style="fill:rgb(38,97,197);fill-rule:nonzero;stroke:rgb(38,97,197);stroke-width:0.2px;"/>
            </g>
            <g transform="matrix(1,0,0,1,1242,1636.5)">
                <path d="M15.08,13.9C14.739,13.878 14.397,13.861 14.055,13.83C13.996,13.825 13.943,13.755 13.888,13.714C13.948,13.679 14.007,13.613 14.067,13.613C14.569,13.62 15.072,13.634 15.574,13.659C15.632,13.662 15.686,13.732 15.741,13.771C15.681,13.806 15.623,13.867 15.559,13.873C15.401,13.887 15.241,13.877 15.08,13.877L15.08,13.9Z" style="fill:rgb(38,97,197);fill-rule:nonzero;stroke:rgb(38,97,197);stroke-width:0.2px;"/>
            </g>
            <g transform="matrix(1,0,0,1,1242,1636.5)">
                <path d="M62.881,17.681C62.892,18.615 62.767,19.523 62.374,20.368C62.2,20.743 61.965,21.109 61.683,21.41C61.079,22.055 60.262,22.073 59.583,21.506C59.091,21.096 58.789,20.555 58.584,19.963C58.06,18.458 58.022,16.935 58.486,15.408C58.636,14.914 58.864,14.454 59.21,14.063C59.919,13.262 60.865,13.225 61.619,13.983C62.236,14.603 62.539,15.387 62.699,16.225C62.791,16.704 62.823,17.195 62.881,17.68L62.881,17.681ZM58.557,17.824C58.554,18.505 58.714,19.416 59.122,20.275C59.311,20.672 59.549,21.037 59.908,21.306C60.395,21.673 60.919,21.673 61.368,21.259C61.588,21.057 61.783,20.806 61.925,20.54C62.393,19.659 62.546,18.697 62.526,17.709C62.509,16.813 62.335,15.94 61.922,15.142C61.737,14.783 61.484,14.437 61.191,14.158C60.719,13.71 60.135,13.731 59.672,14.189C59.438,14.422 59.234,14.705 59.085,15C58.681,15.801 58.555,16.669 58.557,17.824Z" style="fill:rgb(38,97,197);fill-rule:nonzero;"/>
            </g>
            <g transform="matrix(1,0,0,1,1242,1636.5)">
                <path d="M8.084,12.001L11.811,12.001C11.776,12.679 11.776,13.334 11.59,13.97C11.533,14.163 11.424,14.309 11.187,14.312C10.576,14.319 9.964,14.354 9.353,14.345C8.903,14.337 8.454,14.295 8.007,14.241C7.714,14.206 7.66,14.135 7.712,13.844C7.822,13.232 7.958,12.623 8.085,12.002L8.084,12.001Z" style="fill:none;fill-rule:nonzero;stroke:rgb(38,97,197);stroke-width:0.2px;"/>
            </g>
            <g transform="matrix(1,0,0,1,1242,1636.5)">
                <path d="M58.557,17.823C58.555,16.668 58.681,15.8 59.085,14.999C59.234,14.704 59.437,14.421 59.672,14.188C60.135,13.73 60.719,13.708 61.191,14.157C61.483,14.435 61.737,14.781 61.922,15.141C62.336,15.939 62.509,16.812 62.526,17.708C62.545,18.697 62.393,19.658 61.925,20.54C61.785,20.805 61.589,21.056 61.368,21.258C60.919,21.672 60.395,21.672 59.908,21.305C59.55,21.036 59.311,20.673 59.122,20.275C58.714,19.415 58.555,18.504 58.557,17.823Z" style="fill:none;fill-rule:nonzero;stroke:white;stroke-width:0.2px;"/>
            </g>
        </g>
    </g>
</svg>
