<?xml version="1.0" encoding="UTF-8" standalone="no"?>
<!DOCTYPE svg PUBLIC "-//W3C//DTD SVG 1.1//EN" "http://www.w3.org/Graphics/SVG/1.1/DTD/svg11.dtd">
<svg width="100%" height="100%" viewBox="0 0 65 28" version="1.1" xmlns="http://www.w3.org/2000/svg" xmlns:xlink="http://www.w3.org/1999/xlink" xml:space="preserve" xmlns:serif="http://www.serif.com/" style="fill-rule:evenodd;clip-rule:evenodd;">
    <g transform="matrix(1,0,0,1,-1242.59,-1636.11)">
        <g id="Driver-Front" serif:id="Driver Front">
            <g transform="matrix(1,0,0,1,1242,1635.5)">
                <path d="M61.768,22.053C61.595,22.844 61.443,23.657 60.819,24.263C60.316,24.751 59.841,24.748 59.36,24.235C58.824,23.664 58.554,22.958 58.4,22.209C58.048,20.509 58.138,18.828 58.688,17.18C58.795,16.861 58.958,16.55 59.146,16.271C59.501,15.749 60.038,15.58 60.65,15.75C61.138,15.885 61.538,16.15 61.827,16.57C61.854,16.609 61.885,16.645 61.933,16.674C61.8,15.748 61.733,14.804 61.137,14.017C60.712,13.458 60.289,13.383 59.706,13.775C59.291,14.054 58.994,14.442 58.747,14.868C58.082,16.012 57.693,17.256 57.411,18.54C57.262,19.221 57.118,19.905 56.97,20.587C56.893,20.946 56.888,20.923 56.538,20.948C56.045,20.984 55.556,21.065 55.064,21.118C53.777,21.26 52.494,21.422 51.206,21.533C49.747,21.658 48.285,21.737 46.823,21.834C45.548,21.916 44.271,21.978 42.999,22.081C41.743,22.184 40.491,22.326 39.238,22.453C39.13,22.465 39.022,22.49 38.891,22.513C39.128,22.209 38.977,21.901 38.954,21.613C38.884,20.73 38.773,19.851 38.683,18.97C38.583,17.979 38.395,17.009 38.061,16.068C37.87,15.527 37.551,15.055 37.129,14.683C36.543,14.169 35.828,14.134 35.102,14.331C34.19,14.578 33.594,15.212 33.176,16.019C32.624,17.089 32.319,18.242 32.082,19.417C31.876,20.45 31.641,21.479 31.399,22.506C31.288,22.981 30.98,23.21 30.497,23.241C27.009,23.464 23.518,23.558 20.023,23.513C18.589,23.495 17.157,23.476 15.724,23.425C13.795,23.359 11.869,23.256 9.94,23.183C8.013,23.11 6.084,23.051 4.155,22.993C3.603,22.976 3.049,22.991 2.475,22.991C2.903,23.09 3.315,23.225 3.736,23.279C4.945,23.43 6.156,23.585 7.371,23.672C9.01,23.789 10.655,23.827 12.294,23.932C13.494,24.01 14.689,24.149 15.889,24.246C16.562,24.301 17.237,24.35 17.912,24.358C20.029,24.388 22.147,24.389 24.265,24.416C25.363,24.43 26.462,24.496 27.56,24.5C28.028,24.502 28.496,24.41 28.963,24.347C29.056,24.334 29.139,24.259 29.227,24.214C29.252,24.201 29.282,24.185 29.309,24.184C29.42,24.18 29.536,24.202 29.642,24.177C30.131,24.058 30.616,23.92 31.105,23.805C31.19,23.785 31.291,23.838 31.384,23.858C31.315,23.924 31.256,24.024 31.173,24.049C30.653,24.211 30.128,24.357 29.605,24.509C29.552,24.524 29.5,24.544 29.421,24.571C29.47,24.742 29.5,24.909 29.565,25.063C29.726,25.444 29.896,25.822 30.076,26.194C30.439,26.947 31.045,27.388 31.86,27.527C33.023,27.725 34.197,27.762 35.359,27.568C36.77,27.332 37.557,26.401 37.948,25.082C38.053,24.724 38.149,24.364 38.253,24.006C38.282,23.903 38.331,23.805 38.371,23.703C38.395,23.709 38.42,23.715 38.444,23.72C38.427,23.848 38.421,23.979 38.389,24.103C38.231,24.689 38.115,25.292 37.894,25.853C37.432,27.031 36.507,27.679 35.279,27.865C34.122,28.039 32.957,28.009 31.8,27.827C30.925,27.689 30.263,27.238 29.842,26.447C29.538,25.878 29.285,25.292 29.191,24.649C28.752,24.699 28.32,24.787 27.887,24.789C27.082,24.79 26.278,24.721 25.472,24.714C23.729,24.701 21.986,24.723 20.242,24.704C19.07,24.692 17.898,24.658 16.726,24.589C15.924,24.543 15.125,24.43 14.325,24.332C13.85,24.274 13.791,24.294 13.596,24.725C12.825,26.424 11.228,27.334 9.37,27.169C8.733,27.112 8.111,27.02 7.507,26.809C6.423,26.432 5.671,25.66 5.042,24.746C4.822,24.426 4.64,24.079 4.43,23.751C4.393,23.695 4.307,23.648 4.238,23.639C3.391,23.515 2.565,23.307 1.773,22.978C1.765,22.975 1.758,22.971 1.75,22.968C1.331,22.826 1.338,22.826 1.406,22.369C1.489,21.805 1.382,21.263 1.15,20.752C0.97,20.355 0.943,20.017 1.119,19.581C1.368,18.963 1.474,18.285 1.623,17.629C1.812,16.798 1.945,15.953 2.166,15.132C2.442,14.11 3.021,13.269 3.831,12.575C5.425,11.205 7.261,10.369 9.312,9.946C10.951,9.608 12.579,9.21 14.211,8.838C16.011,8.427 17.515,7.488 18.735,6.14C20.609,4.071 22.959,2.873 25.617,2.19C27.165,1.792 28.738,1.546 30.328,1.394C33.574,1.085 36.829,0.993 40.087,1.024C41.928,1.041 43.764,1.163 45.584,1.443C46.87,1.64 48.164,1.806 49.433,2.079C50.805,2.372 52.085,2.964 53.374,3.51C55.026,4.207 56.662,4.935 58.172,5.91C58.858,6.352 59.575,6.725 60.291,7.113C61.525,7.781 62.673,8.582 63.707,9.538C64.341,10.124 64.625,10.874 64.746,11.713C64.947,13.102 65.001,14.498 64.999,15.898C64.996,16.848 65.023,17.806 64.924,18.748C64.789,20.055 64.412,20.624 62.849,21.118C62.647,21.181 62.581,21.253 62.585,21.458C62.602,22.498 62.263,23.435 61.73,24.315C61.075,25.399 60.061,25.857 58.851,25.923C58.27,25.954 57.67,25.965 57.102,25.861C56.157,25.688 55.459,25.132 55.081,24.229C54.896,23.79 54.749,23.335 54.579,22.874C54.198,22.931 53.776,23.02 53.349,23.054C52.35,23.133 51.351,23.19 50.351,23.248C48.945,23.329 47.535,23.364 46.134,23.488C44.327,23.647 42.526,23.88 40.721,24.066C40.051,24.135 39.375,24.16 38.701,24.2C38.658,24.202 38.61,24.157 38.565,24.135C38.597,24.094 38.624,24.025 38.664,24.015C38.94,23.948 39.216,23.875 39.495,23.835C40.461,23.702 41.428,23.571 42.397,23.459C43.706,23.308 45.015,23.138 46.328,23.045C47.863,22.937 49.402,22.906 50.939,22.837C51.865,22.797 52.793,22.763 53.718,22.7C54.423,22.65 55.124,22.555 55.828,22.487C55.947,22.476 56.07,22.51 56.191,22.524C56.19,22.558 56.188,22.59 56.187,22.624C55.783,22.684 55.38,22.746 54.901,22.819C55.2,23.435 55.438,24.052 55.785,24.6C56.177,25.219 56.848,25.453 57.546,25.517C58.244,25.58 58.944,25.538 59.635,25.386C60.625,25.168 61.254,24.521 61.706,23.67C61.979,23.156 62.138,22.603 62.204,22.022C62.242,21.696 62.297,21.369 62.367,21.049C62.381,20.987 62.493,20.935 62.569,20.901C62.882,20.764 63.202,20.647 63.51,20.501C64.183,20.18 64.51,19.608 64.643,18.9C64.833,17.9 64.793,16.893 64.743,15.885C64.67,14.408 64.557,12.935 64.377,11.464C64.283,10.691 63.94,10.129 63.379,9.642C62.222,8.641 60.986,7.764 59.582,7.14C59.427,7.071 59.288,6.97 59.125,6.873C59.1,6.951 59.068,7.023 59.053,7.099C58.872,8.024 58.244,8.472 57.373,8.634C57.015,8.7 56.645,8.721 56.28,8.732C54.416,8.79 52.55,8.822 50.687,8.894C49.565,8.938 48.445,9.033 47.325,9.111C46.83,9.144 46.335,9.189 45.84,9.233C45.753,9.24 45.659,9.253 45.581,9.291C45.079,9.535 44.544,9.605 43.994,9.62C42.806,9.649 41.618,9.684 40.429,9.721C40.228,9.726 40.028,9.756 39.822,9.774C39.8,9.555 39.935,9.521 40.063,9.514C40.477,9.49 40.891,9.478 41.306,9.463C42.307,9.43 43.308,9.404 44.309,9.364C44.974,9.336 45.557,9.088 46.058,8.648C46.107,8.605 46.155,8.561 46.198,8.512C46.565,8.094 46.509,7.699 45.997,7.48C45.629,7.322 45.226,7.211 44.828,7.159C44.123,7.068 43.413,7.051 42.743,7.365C42.314,7.566 42.051,7.892 41.953,8.353C41.887,8.666 41.804,8.749 41.48,8.775C41.026,8.81 40.571,8.827 40.115,8.849C39.935,8.858 39.843,8.77 39.895,8.595C39.987,8.284 40.062,7.961 40.211,7.678C40.671,6.801 41.106,5.903 41.652,5.08C42.626,3.612 44.102,2.886 45.785,2.534C46.737,2.334 47.701,2.259 48.683,2.281C48.296,2.205 47.911,2.107 47.52,2.058C45.865,1.854 44.211,1.619 42.55,1.481C40.651,1.325 38.742,1.345 36.836,1.411C35.51,1.457 34.183,1.495 32.857,1.57C30.637,1.695 28.424,1.889 26.252,2.405C26.151,2.429 26.051,2.462 25.997,2.478C28.536,2.417 31.119,2.34 33.703,2.304C34.621,2.291 35.541,2.381 36.459,2.42C37.044,2.446 37.631,2.447 38.216,2.488C39.221,2.558 40.225,2.649 41.23,2.734C41.303,2.739 41.375,2.758 41.445,2.779C41.679,2.846 41.753,3.016 41.62,3.215C41.256,3.754 40.882,4.286 40.513,4.823C39.689,6.025 39.091,7.338 38.615,8.711C38.597,8.763 38.57,8.832 38.591,8.872C38.729,9.143 38.535,9.192 38.351,9.215C38.061,9.251 37.768,9.279 37.475,9.275C35.489,9.244 33.502,9.196 31.514,9.167C29.161,9.132 26.806,9.115 24.452,9.081C22.261,9.05 20.07,9.016 17.879,8.969C17.05,8.95 16.222,8.886 15.394,8.845C15.347,8.842 15.298,8.856 15.252,8.872C13.501,9.456 11.695,9.802 9.888,10.151C7.969,10.522 6.167,11.152 4.601,12.358C4.376,12.532 4.157,12.715 3.937,12.897C3.869,12.953 3.808,13.019 3.727,13.096C3.77,13.112 3.797,13.129 3.824,13.129C5.402,13.179 6.981,13.235 8.56,13.279C10.538,13.332 12.517,13.361 14.495,13.431C15.983,13.483 17.469,13.592 18.958,13.657C19.227,13.668 19.5,13.584 19.774,13.559C21.013,13.442 22.25,13.293 23.491,13.227C25.133,13.14 26.778,13.116 28.423,13.072C29.327,13.048 30.231,13.04 31.133,13.027C31.309,13.025 31.484,13.044 31.696,13.054C31.682,13.11 31.687,13.183 31.654,13.217C31.191,13.682 30.845,14.252 30.276,14.626C29.631,15.05 28.939,15.282 28.176,15.334C27.169,15.403 26.164,15.496 25.157,15.556C24.467,15.597 23.774,15.606 23.082,15.623C22.424,15.639 21.766,15.672 21.11,15.648C20.926,15.641 20.718,15.493 20.574,15.354C20.171,14.964 19.787,14.553 19.41,14.135C19.203,13.906 18.998,13.75 18.661,13.802C18.343,13.852 18.016,13.847 17.643,13.868C17.772,13.979 17.888,14.054 17.969,14.155C18.384,14.665 18.8,15.174 19.194,15.7C19.413,15.994 19.419,16.335 19.205,16.635C18.894,17.071 18.558,17.489 18.219,17.904C18.155,17.983 18.024,18.046 17.923,18.048C17.297,18.052 16.672,18.038 16.047,18.028C15.983,18.027 15.917,18.019 15.852,18.019C13.514,18.024 11.176,18.036 8.838,18.032C7.42,18.029 6.007,17.952 4.621,17.619C4.487,17.586 4.417,17.532 4.354,17.388C4.119,16.857 4.023,16.307 4.063,15.794C3.496,15.675 2.962,15.561 2.416,15.445C2.101,16.729 1.771,18.073 1.449,19.387C1.813,19.321 2.213,19.207 2.617,19.184C3.713,19.117 4.812,19.057 5.908,19.054C7.309,19.05 8.71,19.084 10.111,19.139C12.023,19.213 13.932,19.33 15.842,19.415C17.258,19.479 18.674,19.514 20.089,19.581C21.373,19.643 22.662,19.669 23.915,20.012C25.067,20.326 26.081,20.893 26.962,21.697C27.099,21.821 27.221,21.971 27.314,22.13C27.369,22.223 27.35,22.358 27.343,22.47C26.476,21.444 25.339,20.896 24.123,20.485C23.323,20.215 22.488,20.121 21.648,20.073C20.202,19.99 18.755,19.909 17.307,19.837C16.267,19.787 15.225,19.754 14.183,19.715C11.547,19.615 8.911,19.503 6.275,19.424C5.162,19.39 4.044,19.414 2.93,19.446C2.511,19.459 2.094,19.562 1.68,19.643C1.559,19.667 1.439,19.746 1.342,19.827C1.293,19.868 1.257,19.989 1.282,20.042C1.664,20.885 1.839,21.756 1.671,22.678C1.668,22.692 1.677,22.708 1.684,22.747C1.889,22.732 2.096,22.702 2.304,22.702C3.828,22.7 5.352,22.673 6.874,22.711C8.558,22.753 10.24,22.86 11.924,22.93C12.981,22.975 14.04,23.024 15.097,23.04C18.11,23.082 21.124,23.128 24.138,23.134C26.214,23.137 28.291,23.075 30.367,23.04C30.93,23.03 31.114,22.894 31.222,22.351C31.469,21.11 31.683,19.863 31.94,18.623C32.133,17.691 32.39,16.771 32.832,15.921C33.331,14.958 34.044,14.232 35.147,13.98C35.771,13.839 36.381,13.891 36.961,14.152C37.162,14.242 37.344,14.397 37.501,14.557C38.243,15.313 38.573,16.273 38.776,17.28C39.064,18.718 39.188,20.176 39.242,21.64C39.249,21.842 39.244,22.043 39.244,22.257C39.625,22.199 40,22.141 40.404,22.08C40.121,20.982 40.034,19.86 39.969,18.738C39.905,17.617 39.874,16.496 39.857,15.372C39.841,14.253 39.732,13.13 39.872,12.014C39.9,12.011 39.928,12.009 39.957,12.007C39.971,12.053 39.997,12.098 39.999,12.144C40.054,13.501 40.118,14.858 40.156,16.216C40.204,17.866 40.259,19.514 40.485,21.152C40.526,21.448 40.553,21.746 40.582,22.008C43.941,21.756 47.277,21.507 50.559,21.261C50.559,20.367 50.573,19.475 50.555,18.583C50.54,17.835 50.467,17.089 50.453,16.341C50.438,15.651 50.464,14.959 50.483,14.267C50.486,14.141 50.54,14.014 50.628,13.893C50.801,16.341 51.132,18.777 50.801,21.246C52.789,21.143 54.712,20.681 56.693,20.772C56.783,20.28 56.869,19.77 56.971,19.264C57.25,17.885 57.558,16.514 58.152,15.226C58.462,14.56 58.857,13.961 59.474,13.533C60.239,13.003 60.905,13.107 61.477,13.839C61.931,14.419 62.073,15.116 62.194,15.812C62.464,17.378 62.578,18.96 62.55,20.55C62.548,20.615 62.555,20.682 62.54,20.744C62.53,20.782 62.485,20.833 62.451,20.835C62.419,20.838 62.363,20.796 62.35,20.761C62.322,20.686 62.312,20.603 62.302,20.523C62.186,19.646 62.087,18.767 61.948,17.893C61.85,17.272 61.637,16.688 61.071,16.321C60.909,16.216 60.731,16.126 60.548,16.067C60.056,15.908 59.673,16.054 59.387,16.486C59.084,16.941 58.935,17.454 58.813,17.979C58.449,19.536 58.424,21.093 58.886,22.631C59.017,23.066 59.233,23.491 59.481,23.876C59.855,24.457 60.283,24.5 60.752,23.991C61.031,23.688 61.227,23.298 61.422,22.929C61.568,22.656 61.654,22.347 61.768,22.053ZM16.017,8.623C16.316,8.623 16.617,8.62 16.916,8.623C19.628,8.657 22.34,8.696 25.052,8.724C27.723,8.752 30.395,8.769 33.067,8.793C34.108,8.801 35.15,8.813 36.192,8.824C36.843,8.831 37.494,8.838 38.143,8.848C38.272,8.849 38.315,8.79 38.352,8.668C38.953,6.722 39.833,4.921 41.163,3.361C41.236,3.275 41.306,3.189 41.396,3.082C41.316,3.06 41.265,3.036 41.213,3.032C40.2,2.946 39.189,2.846 38.174,2.783C36.899,2.703 35.622,2.602 34.347,2.602C32.378,2.602 30.408,2.666 28.438,2.731C27.334,2.767 26.23,2.856 25.126,2.929C24.771,2.953 24.397,2.942 24.068,3.054C22.389,3.625 20.881,4.491 19.621,5.755C18.534,6.847 17.459,7.949 16.017,8.623ZM17.387,17.773L17.387,17.825C17.51,17.825 17.636,17.845 17.753,17.82C17.885,17.79 18.047,17.755 18.129,17.662C18.402,17.362 18.659,17.045 18.894,16.713C19.199,16.28 19.168,16.131 18.883,15.683C18.436,14.983 17.82,14.439 17.237,13.862C17.203,13.83 17.134,13.823 17.082,13.82C16.261,13.786 15.44,13.749 14.619,13.723C11.821,13.636 9.022,13.553 6.225,13.476C6.131,13.473 6.007,13.535 5.944,13.607C5.543,14.066 5.172,14.553 4.761,15.003C4.399,15.4 4.259,15.846 4.333,16.368C4.356,16.536 4.39,16.704 4.421,16.871C4.505,17.325 4.504,17.346 4.958,17.398C5.83,17.499 6.703,17.622 7.577,17.65C9.212,17.702 10.849,17.692 12.485,17.71C14.117,17.733 15.752,17.754 17.387,17.773ZM47.928,2.735C48.148,3.358 48.376,3.939 48.559,4.535C48.944,5.793 49.305,7.058 49.671,8.322C49.705,8.439 49.736,8.502 49.876,8.498C51.837,8.439 53.8,8.385 55.762,8.329C56.076,8.321 56.389,8.298 56.73,8.281C56.694,8.219 56.678,8.186 56.655,8.155C55.938,7.142 55.463,6.015 55.078,4.844C55.05,4.758 54.965,4.667 54.884,4.629C54.404,4.404 53.923,4.183 53.434,3.984C52.478,3.594 51.531,3.179 50.552,2.852C49.71,2.569 48.82,2.755 47.928,2.735ZM47.499,2.735C46.938,2.817 46.38,2.874 45.832,2.98C44.391,3.26 43.135,3.882 42.195,5.045C41.344,6.095 40.78,7.314 40.17,8.509C40.585,8.489 40.99,8.458 41.395,8.454C41.583,8.453 41.665,8.388 41.708,8.205C41.842,7.654 42.19,7.282 42.709,7.057C43.418,6.75 44.163,6.773 44.895,6.86C45.355,6.915 45.825,7.05 46.242,7.249C46.837,7.535 46.908,8.1 46.485,8.607C46.43,8.673 46.376,8.738 46.297,8.832C47.365,8.72 48.394,8.612 49.422,8.505C48.787,6.601 48.153,4.699 47.499,2.735ZM4.801,23.795C4.981,24.056 5.161,24.368 5.388,24.638C5.75,25.066 6.09,25.536 6.533,25.865C7.822,26.824 9.299,27.018 10.85,26.724C12.243,26.462 12.844,25.309 13.541,24.291C10.628,24.126 7.707,23.961 4.801,23.795ZM19.677,13.854C20.108,14.322 20.553,14.818 21.013,15.299C21.076,15.365 21.21,15.389 21.311,15.386C21.595,15.381 21.877,15.341 22.163,15.332C22.977,15.305 23.792,15.315 24.603,15.26C25.892,15.171 27.179,15.041 28.467,14.931C29.477,14.845 30.748,14.072 31.206,13.293C27.356,13.421 23.469,13.494 19.677,13.854ZM55.502,4.934C55.539,5.027 55.557,5.087 55.584,5.143C56.041,6.102 56.509,7.057 56.949,8.024C57.047,8.242 57.154,8.256 57.352,8.218C58.127,8.07 58.53,7.536 58.807,6.864C58.124,6.286 56.561,5.371 55.502,4.934ZM4.049,15.594C4.536,14.752 5.238,14.179 5.804,13.479C5.758,13.46 5.73,13.439 5.7,13.438C5.012,13.397 4.321,13.358 3.632,13.324C3.575,13.321 3.495,13.341 3.458,13.382C2.991,13.883 2.683,14.471 2.481,15.188C3.029,15.33 3.549,15.465 4.049,15.594Z" style="fill:rgb(38,97,197);fill-rule:nonzero;stroke:rgb(38,97,197);stroke-width:0.2px;"/>
            </g>
            <g transform="matrix(1,0,0,1,1242,1635.5)">
                <path d="M29.145,12.32C29.542,12.216 29.936,12.105 30.335,12.01C32.895,11.398 35.487,10.948 38.09,10.556C39.069,10.408 40.06,10.338 41.047,10.244C42.261,10.129 43.475,10.018 44.69,9.921C45.411,9.863 46.135,9.825 46.859,9.804C49.284,9.734 51.709,9.665 54.134,9.613C56.161,9.569 58.189,9.545 60.216,9.52C60.549,9.516 60.882,9.545 61.216,9.573C61.329,9.583 61.439,9.635 61.55,9.668C61.547,9.691 61.545,9.715 61.54,9.739C61.466,9.743 61.391,9.75 61.317,9.752C59.818,9.772 58.321,9.786 56.822,9.812C55.341,9.839 53.859,9.877 52.377,9.915C50.562,9.961 48.746,9.978 46.932,10.072C45.072,10.169 43.218,10.352 41.361,10.484C38.23,10.707 35.157,11.304 32.081,11.887C31.147,12.065 30.212,12.235 29.278,12.406C29.241,12.413 29.203,12.408 29.165,12.408C29.16,12.378 29.153,12.35 29.145,12.32Z" style="fill:rgb(38,97,197);fill-rule:nonzero;stroke:rgb(38,97,197);stroke-width:0.2px;"/>
            </g>
            <g transform="matrix(1,0,0,1,1242,1635.5)">
                <path d="M38,23.462C37.921,23.873 37.827,24.284 37.769,24.7C37.685,25.302 37.434,25.819 37.018,26.251C36.381,26.913 35.494,26.951 34.784,26.36C34.187,25.863 33.855,25.189 33.615,24.477C32.906,22.38 33.009,20.3 33.827,18.254C33.961,17.921 34.163,17.596 34.401,17.328C35.351,16.252 36.762,16.361 37.534,17.568C37.728,17.871 37.866,18.221 37.967,18.566C38.201,19.365 38.268,20.193 38.291,21.022C38.293,21.134 38.257,21.247 38.237,21.36C38.206,21.36 38.175,21.36 38.146,21.358C38.116,21.135 38.095,20.909 38.056,20.686C37.929,19.985 37.815,19.281 37.659,18.585C37.553,18.11 37.301,17.698 36.941,17.36C36.471,16.92 35.873,16.83 35.295,17.113C34.796,17.357 34.467,17.759 34.24,18.254C33.923,18.947 33.741,19.68 33.637,20.432C33.415,22.047 33.582,23.615 34.305,25.092C34.467,25.423 34.685,25.745 34.942,26.005C35.576,26.646 36.408,26.578 36.98,25.878C37.364,25.409 37.555,24.848 37.717,24.276C37.794,24.004 37.866,23.732 37.941,23.459C37.959,23.459 37.978,23.46 38,23.462Z" style="fill:rgb(38,97,197);fill-rule:nonzero;stroke:rgb(38,97,197);stroke-width:0.2px;"/>
            </g>
            <g transform="matrix(1,0,0,1,1242,1635.5)">
                <path d="M16.017,8.623C17.459,7.949 18.535,6.846 19.62,5.755C20.879,4.491 22.388,3.624 24.066,3.054C24.395,2.942 24.769,2.953 25.125,2.929C26.229,2.855 27.332,2.767 28.437,2.731C30.407,2.666 32.376,2.602 34.346,2.602C35.622,2.602 36.899,2.703 38.173,2.783C39.188,2.846 40.198,2.946 41.212,3.032C41.264,3.036 41.315,3.06 41.395,3.082C41.306,3.188 41.234,3.275 41.161,3.361C39.832,4.921 38.952,6.722 38.351,8.668C38.313,8.79 38.271,8.849 38.142,8.848C37.491,8.838 36.84,8.831 36.19,8.824C35.149,8.813 34.107,8.801 33.065,8.793C30.394,8.77 27.722,8.752 25.051,8.724C22.339,8.696 19.627,8.657 16.915,8.623C16.617,8.62 16.317,8.623 16.017,8.623Z" style="fill:none;fill-rule:nonzero;stroke:rgb(38,97,197);stroke-width:0.2px;"/>
            </g>
            <g transform="matrix(1,0,0,1,1242,1635.5)">
                <path d="M17.387,17.773C15.752,17.754 14.117,17.731 12.484,17.713C10.847,17.695 9.211,17.705 7.576,17.653C6.701,17.624 5.828,17.502 4.957,17.401C4.503,17.349 4.504,17.328 4.42,16.874C4.389,16.706 4.355,16.539 4.331,16.37C4.259,15.849 4.397,15.402 4.76,15.005C5.17,14.556 5.543,14.069 5.942,13.609C6.005,13.536 6.129,13.476 6.223,13.479C9.021,13.555 11.82,13.639 14.618,13.726C15.439,13.751 16.26,13.789 17.081,13.823C17.134,13.826 17.203,13.832 17.235,13.865C17.819,14.44 18.433,14.984 18.882,15.686C19.168,16.134 19.199,16.283 18.893,16.716C18.66,17.048 18.401,17.364 18.128,17.665C18.045,17.757 17.883,17.793 17.751,17.823C17.635,17.848 17.508,17.828 17.386,17.828C17.387,17.809 17.387,17.792 17.387,17.773ZM17.715,15.912C17.725,15.88 17.734,15.848 17.743,15.814C17.607,15.767 17.473,15.693 17.332,15.679C16.767,15.618 16.199,15.53 15.634,15.533C12.988,15.547 10.343,15.587 7.698,15.617C7.161,15.623 6.624,15.616 6.086,15.621C5.994,15.623 5.904,15.656 5.813,15.676C5.816,15.701 5.819,15.725 5.823,15.75C5.932,15.77 6.042,15.803 6.153,15.81C6.77,15.845 7.387,15.902 8.005,15.901C10.089,15.897 12.173,15.867 14.258,15.853C15.055,15.848 15.852,15.852 16.649,15.862C17.005,15.867 17.359,15.895 17.715,15.912ZM17.308,16.99C17.316,16.959 17.324,16.929 17.331,16.898C17.133,16.863 16.935,16.799 16.736,16.798C14.529,16.773 12.323,16.756 10.116,16.737C9.953,16.736 9.79,16.729 9.628,16.728C8.432,16.716 7.234,16.704 6.038,16.697C5.955,16.697 5.871,16.737 5.788,16.76C5.788,16.796 5.788,16.833 5.789,16.868C5.946,16.895 6.104,16.938 6.263,16.944C7.825,16.992 9.387,17.064 10.948,17.068C12.911,17.072 14.872,17.019 16.835,16.99C16.992,16.988 17.151,16.99 17.308,16.99ZM16.256,14.696C16.26,14.688 16.264,14.679 16.268,14.671C16.085,14.631 15.905,14.565 15.721,14.557C14.462,14.499 13.202,14.437 11.941,14.408C10.842,14.383 9.742,14.383 8.643,14.398C7.846,14.409 7.05,14.463 6.254,14.505C6.117,14.512 5.98,14.557 5.844,14.584C5.847,14.62 5.849,14.658 5.852,14.695C9.32,14.696 12.789,14.696 16.256,14.696Z" style="fill:none;fill-rule:nonzero;stroke:rgb(38,97,197);stroke-width:0.2px;"/>
            </g>
            <g transform="matrix(1,0,0,1,1242,1635.5)">
                <path d="M47.928,2.735C48.822,2.755 49.71,2.57 50.551,2.851C51.528,3.178 52.477,3.593 53.433,3.982C53.922,4.182 54.403,4.404 54.882,4.628C54.964,4.666 55.048,4.757 55.076,4.843C55.462,6.014 55.937,7.14 56.654,8.153C56.676,8.184 56.693,8.22 56.728,8.28C56.388,8.297 56.075,8.318 55.761,8.328C53.798,8.384 51.837,8.437 49.875,8.497C49.733,8.501 49.703,8.437 49.67,8.321C49.304,7.057 48.943,5.792 48.558,4.533C48.376,3.939 48.147,3.358 47.928,2.735Z" style="fill:none;fill-rule:nonzero;stroke:rgb(38,97,197);stroke-width:0.2px;"/>
            </g>
            <g transform="matrix(1,0,0,1,1242,1635.5)">
                <path d="M47.499,2.735C48.152,4.699 48.786,6.601 49.42,8.505C48.393,8.613 47.365,8.72 46.295,8.832C46.374,8.738 46.429,8.674 46.484,8.608C46.907,8.101 46.835,7.535 46.24,7.25C45.823,7.05 45.353,6.915 44.894,6.86C44.16,6.773 43.415,6.749 42.708,7.057C42.187,7.282 41.84,7.654 41.707,8.205C41.662,8.388 41.582,8.453 41.393,8.454C40.988,8.459 40.583,8.489 40.169,8.509C40.779,7.314 41.343,6.095 42.193,5.045C43.134,3.883 44.389,3.258 45.83,2.98C46.38,2.875 46.936,2.817 47.499,2.735Z" style="fill:none;fill-rule:nonzero;stroke:rgb(38,97,197);stroke-width:0.2px;"/>
            </g>
            <g transform="matrix(1,0,0,1,1242,1635.5)">
                <path d="M4.801,23.795C7.707,23.959 10.628,24.127 13.541,24.291C12.844,25.309 12.242,26.462 10.85,26.725C9.299,27.019 7.822,26.823 6.533,25.866C6.091,25.537 5.75,25.067 5.388,24.638C5.161,24.369 4.981,24.056 4.801,23.795Z" style="fill:none;fill-rule:nonzero;stroke:rgb(38,97,197);stroke-width:0.2px;"/>
            </g>
            <g transform="matrix(1,0,0,1,1242,1635.5)">
                <path d="M19.677,13.854C23.469,13.495 27.356,13.421 31.207,13.294C30.748,14.073 29.476,14.846 28.467,14.932C27.179,15.041 25.893,15.172 24.604,15.261C23.792,15.316 22.977,15.306 22.163,15.332C21.879,15.342 21.595,15.38 21.311,15.387C21.211,15.39 21.076,15.366 21.013,15.3C20.553,14.817 20.108,14.322 19.677,13.854Z" style="fill:none;fill-rule:nonzero;stroke:rgb(38,97,197);stroke-width:0.2px;"/>
            </g>
            <g transform="matrix(1,0,0,1,1242,1635.5)">
                <path d="M55.502,4.934C56.561,5.369 58.124,6.285 58.807,6.864C58.531,7.537 58.127,8.071 57.352,8.218C57.154,8.256 57.047,8.24 56.949,8.024C56.51,7.056 56.041,6.102 55.584,5.143C55.557,5.087 55.539,5.028 55.502,4.934Z" style="fill:none;fill-rule:nonzero;stroke:rgb(38,97,197);stroke-width:0.2px;"/>
            </g>
            <g transform="matrix(1,0,0,1,1242,1635.5)">
                <path d="M4.049,15.594C3.549,15.465 3.028,15.329 2.482,15.187C2.683,14.47 2.991,13.882 3.459,13.38C3.496,13.341 3.576,13.32 3.634,13.323C4.324,13.356 5.013,13.397 5.702,13.436C5.731,13.438 5.759,13.459 5.806,13.477C5.238,14.179 4.536,14.752 4.049,15.594Z" style="fill:none;fill-rule:nonzero;stroke:rgb(38,97,197);stroke-width:0.2px;"/>
            </g>
            <g transform="matrix(1,0,0,1,1242,1635.5)">
                <path d="M17.715,15.912C17.359,15.896 17.005,15.867 16.649,15.863C15.852,15.853 15.055,15.849 14.258,15.855C12.173,15.869 10.089,15.898 8.005,15.903C7.387,15.904 6.77,15.846 6.153,15.811C6.042,15.804 5.932,15.772 5.823,15.752C5.82,15.727 5.817,15.703 5.813,15.678C5.904,15.658 5.994,15.624 6.086,15.623C6.623,15.617 7.16,15.624 7.698,15.619C10.344,15.589 12.99,15.548 15.634,15.534C16.201,15.531 16.767,15.619 17.332,15.681C17.473,15.696 17.606,15.769 17.743,15.815C17.734,15.848 17.725,15.88 17.715,15.912Z" style="fill:rgb(38,97,197);fill-rule:nonzero;stroke:rgb(38,97,197);stroke-width:0.2px;"/>
            </g>
            <g transform="matrix(1,0,0,1,1242,1635.5)">
                <path d="M17.308,16.99C17.15,16.99 16.992,16.989 16.833,16.99C14.871,17.018 12.91,17.072 10.947,17.068C9.385,17.063 7.823,16.992 6.261,16.944C6.102,16.94 5.945,16.895 5.788,16.868C5.788,16.831 5.788,16.795 5.786,16.76C5.869,16.737 5.953,16.695 6.036,16.696C7.233,16.703 8.431,16.715 9.627,16.727C9.79,16.729 9.953,16.736 10.115,16.737C12.322,16.757 14.528,16.772 16.735,16.798C16.933,16.8 17.131,16.864 17.33,16.897C17.324,16.928 17.317,16.959 17.308,16.99Z" style="fill:rgb(38,97,197);fill-rule:nonzero;stroke:rgb(38,97,197);stroke-width:0.2px;"/>
            </g>
            <g transform="matrix(1,0,0,1,1242,1635.5)">
                <path d="M16.255,14.836L5.852,14.836C5.849,14.8 5.847,14.762 5.844,14.725C5.98,14.698 6.116,14.653 6.254,14.646C7.05,14.604 7.847,14.551 8.643,14.539C9.742,14.524 10.842,14.523 11.941,14.549C13.202,14.579 14.461,14.641 15.721,14.698C15.905,14.707 16.085,14.773 16.268,14.812C16.264,14.819 16.26,14.828 16.255,14.836Z" style="fill:rgb(38,97,197);fill-rule:nonzero;stroke:rgb(38,97,197);stroke-width:0.2px;"/>
            </g>
        </g>
    </g>
</svg>
