<svg width="100" height="100" viewBox="0 0 100 100" fill="none" xmlns="http://www.w3.org/2000/svg">
<path d="M91.8333 49.9992C93.2233 48.3806 94.1973 46.4473 94.671 44.3671C95.1446 42.2868 95.1035 40.1224 94.5512 38.0616C93.999 36.0008 92.9523 34.1059 91.5019 32.5412C90.0515 30.9765 88.2413 29.7893 86.2282 29.0826C86.6226 26.9858 86.4995 24.8245 85.8694 22.786C85.2394 20.7476 84.1215 18.8937 82.6127 17.3851C81.1039 15.8765 79.2498 14.7588 77.2113 14.1291C75.1727 13.4993 73.0113 13.3764 70.9145 13.7711C70.2083 11.7576 69.0214 9.9469 67.4566 8.49618C65.8919 7.04546 63.9967 5.9986 61.9356 5.44648C59.8745 4.89436 57.7097 4.85367 55.6293 5.32795C53.5489 5.80223 51.6157 6.77714 49.9976 8.16804C48.379 6.7781 46.4457 5.80407 44.3654 5.33044C42.2851 4.85682 40.1206 4.89791 38.0598 5.45014C35.999 6.00237 34.104 7.04907 32.5393 8.49944C30.9746 9.94981 29.7874 11.76 29.0807 13.7731C26.984 13.379 24.8228 13.5024 22.7846 14.1326C20.7464 14.7628 18.8928 15.8808 17.3844 17.3895C15.8761 18.8982 14.7586 20.7521 14.1289 22.7905C13.4992 24.8288 13.3763 26.99 13.7709 29.0865C11.7579 29.7932 9.94759 30.9804 8.4972 32.5451C7.04681 34.1098 6.00009 36.0047 5.44785 38.0655C4.89561 40.1263 4.85451 42.2907 5.32814 44.371C5.80178 46.4512 6.77584 48.3845 8.1658 50.0031C6.77542 51.6217 5.80105 53.5551 5.32729 55.6355C4.85352 57.716 4.89465 59.8807 5.44713 61.9417C5.99962 64.0026 7.04674 65.8976 8.49763 67.4622C9.94852 69.0267 11.7593 70.2136 13.7729 70.9197C13.3779 73.0163 13.5007 75.1776 14.1304 77.2161C14.7602 79.2545 15.878 81.1084 17.3867 82.617C18.8954 84.1255 20.7495 85.243 22.7881 85.8725C24.8266 86.502 26.988 86.6244 29.0846 86.2292C29.7913 88.2423 30.9785 90.0525 32.5432 91.5029C34.1079 92.9532 36.0029 93.9999 38.0637 94.5522C40.1245 95.1044 42.289 95.1455 44.3693 94.6719C46.4496 94.1982 48.3829 93.2242 50.0015 91.8343C51.6201 93.2246 53.5535 94.199 55.6341 94.6727C57.7146 95.1465 59.8792 95.1053 61.9402 94.5529C64.0012 94.0004 65.8963 92.9533 67.4609 91.5024C69.0254 90.0516 70.2123 88.2408 70.9184 86.2272C73.0151 86.6221 75.1765 86.4993 77.215 85.8695C79.2535 85.2398 81.1075 84.1221 82.6162 82.6134C84.1249 81.1048 85.2426 79.2508 85.8724 77.2123C86.5022 75.1738 86.6249 73.0125 86.2301 70.9158C88.2433 70.2092 90.0538 69.0221 91.5042 67.4573C92.9547 65.8926 94.0014 63.9975 94.5535 61.9366C95.1055 59.8757 95.1463 57.7112 94.6723 55.6309C94.1983 53.5507 93.2238 51.6175 91.8333 49.9992Z" fill="#24E081"/>
<path d="M42.1587 67.2516L29.7363 54.6808C29.2648 54.2027 29 53.5546 29 52.879C29 52.2033 29.2648 51.5553 29.7363 51.0771L31.2455 49.547C31.7177 49.0696 32.3577 48.8015 33.0249 48.8015C33.6922 48.8015 34.3322 49.0696 34.8044 49.547L43.8345 58.6847L65.101 35.8011C65.5586 35.3095 66.1901 35.0218 66.857 35.0012C67.5239 34.9806 68.1716 35.2288 68.658 35.6913L70.2079 37.1724C70.694 37.6358 70.9785 38.2757 70.9988 38.9515C71.0192 39.6272 70.7737 40.2835 70.3164 40.7761L45.7777 67.1947C45.5466 67.4441 45.2684 67.6438 44.9596 67.7821C44.6508 67.9204 44.3177 67.9944 43.9801 67.9997C43.6425 68.005 43.3072 67.9415 42.9943 67.813C42.6814 67.6845 42.3972 67.4936 42.1587 67.2516Z" fill="white"/>
</svg>
